<?xml version="1.0" encoding="UTF-8"?>
<svg width="352px" height="319px" viewBox="0 0 352 319" version="1.1" xmlns="http://www.w3.org/2000/svg" xmlns:xlink="http://www.w3.org/1999/xlink">
    <title>HERO FRAME</title>
    <g id="Page-1" stroke="none" stroke-width="1" fill="none" fill-rule="evenodd">
        <g id="TRT-MOBILE-VER2" transform="translate(-13.000000, -8.000000)">
            <g id="HERO-FRAME" transform="translate(14.000000, 9.000000)">
                <polygon id="Path-2" stroke="#FF51AB" stroke-linejoin="round" points="5.65384615 240 5.65384615 107.245456 0 101.234649 0.00341071465 76.7657161 5.65384615 69.6551321 107.518533 69.6551321 118.034765 60.5604853 118.034765 7.53910287 128.998026 0 253.123237 7.21335005e-14 258.76163 4.47709553 263.891529 0 338.961538 7.21335005e-14 350 12.6543311 350 56.7286245 344.615385 63.2716555 344.615385 107.561814 350 113.88898 350 230.921775 337.111412 240 274.265398 240 126.856958 240"></polygon>
                <polygon id="Path-11" stroke="#FF51AB" fill="#FF51AB" stroke-linejoin="round" points="258 4.45787322 264.402005 4.45787322 334.410314 4.45787322 343.629453 14.439311 343.629453 63 349 56.4850614 349 12.6962556 337.990378 0 263.116497 0"></polygon>
                <polygon id="Rectangle" fill="#FF51AB" points="5 206 11 211.593277 11 241 5 241"></polygon>
                <path d="M5,240 L5,303.063607 C5,304.411799 5.45405885,305.720703 6.2889626,306.779266 L13.3372182,315.71566 C14.4749942,317.158231 16.2109893,318 18.0482556,318 L199.32592,318 C200.147881,318 200.961076,317.831113 201.715063,317.503816 L240.389143,300.715842 C242.581526,299.764154 244,297.602058 244,295.212026 L244,240 L244,240 L5,240 Z" id="Path-9" fill="#FF51AB" stroke-linejoin="round"></path>
            </g>
        </g>
    </g>
</svg>