<?xml version="1.0" encoding="UTF-8"?>
<svg width="1240px" height="191px" viewBox="0 0 1240 191" version="1.1" xmlns="http://www.w3.org/2000/svg" xmlns:xlink="http://www.w3.org/1999/xlink">
    <title>BRAND LOGOS</title>
    <defs>
        <polygon id="path-1" points="0.0696611053 0.104386534 12.8576406 0.104386534 12.8576406 17.4770886 0.0696611053 17.4770886"></polygon>
        <polygon id="path-3" points="0 0.275676136 12.0399231 0.275676136 12.0399231 22.3840107 0 22.3840107"></polygon>
        <polygon id="path-5" points="0.444232505 0.318974359 6.65335445 0.318974359 6.65335445 6.42443908 0.444232505 6.42443908"></polygon>
    </defs>
    <g id="Page-1" stroke="none" stroke-width="1" fill="none" fill-rule="evenodd">
        <g id="Tokyo-Realtime-Credits-V2" transform="translate(-81.000000, -2608.000000)">
            <g id="BRAND-LOGOS" transform="translate(83.000000, 2608.000000)">
                <g id="LOGOS" transform="translate(133.750000, 76.000000)">
                    <g id="Playboy_logo" transform="translate(448.250000, 0.000000)" fill="#3C425B" fill-rule="nonzero">
                        <polygon id="rabbit3" points="32.6958064 61.7404391 27.6755177 58.4076097 27.5647059 58.3333333 27.5647059 58.4689524 27.5647059 65.6120495 27.5647059 65.7232793 27.6685461 65.6778266 32.5424311 63.6575828 37.1297465 67.419072 37.2244135 67.5 37.2475299 67.3743584 38.3996792 58.9186756 38.4235294 58.7793612 38.2962059 58.8455078"></polygon>
                        <polygon id="rabbit2" points="38.7940431 61.8569398 38.7876158 61.8569398 38.7414906 61.8719831 38.7335511 61.9259847 38.4386524 64.0528775 38.4235294 64.1666667 38.5275001 64.1373515 50.7393287 60.4814411 50.7933934 60.4752695 50.7933934 60.4201106 50.9427331 58.4417223 50.9529412 58.3333333 50.846702 58.3649629"></polygon>
                        <path d="M55.1773851,22.9685948 C58.6333634,11.4119632 57.3370057,7.94504692 57.624882,0 C38.8986591,14.1573682 44.9491817,30.9129092 43.9407003,30.6243047 C35.154073,18.3465281 26.5119325,7.80111092 13.4046007,2.31066708 C13.4046007,1.01194692 11.2424195,21.2351367 38.7534407,30.9129092 C19.4521969,33.368611 20.8926756,45.5024517 20.8926756,45.5024517 C21.3250387,51.8590752 32.4161393,54.604114 32.4161393,54.604114 C30.2554212,57.7820595 32.2716525,61.1050398 32.4161393,60.8157028 L32.4179682,60.816069 C34.2904442,59.8048546 37.7475199,58.0717627 39.9086037,56.9166123 L39.3321196,60.2384938 L50.855949,56.4829731 C52.2964277,49.9824136 55.4652613,38.2807472 48.695231,33.370076 C48.695231,33.0811053 52.0078199,31.3472809 55.1773851,22.9685948 Z M30.8330027,42.0370004 C29.392524,42.0370004 28.2406532,40.8811175 28.2406532,39.4358976 C28.2406532,37.9917765 29.392524,36.691225 30.8330027,36.691225 C32.2734814,36.691225 33.5698391,37.9917765 33.5698391,39.4358976 C33.5698391,40.8800187 32.2738472,42.0370004 30.8330027,42.0370004 Z" id="rabbit"></path>
                        <path d="M35.2616774,76.3390637 L35.501939,76.3390637 C35.5921274,76.3390637 35.6675248,76.3390637 35.7422007,76.3548589 C35.8028073,76.3699195 35.8479014,76.4308965 35.8479014,76.5069341 C35.8479014,76.5219947 35.8479014,76.5535852 35.832389,76.5686457 C35.832389,76.5837063 35.832389,76.6152968 35.8168766,76.6303574 L35.8168766,76.6604785 C35.8168766,76.6755391 35.8028073,76.6755391 35.8028073,76.6905997 C35.7872949,76.7056603 35.7872949,76.7365161 35.7872949,76.7523114 C35.772504,76.7673719 35.772504,76.7824325 35.772504,76.7824325 L34.9460183,78.1591901 L34.85583,78.1591901 L34.1047417,77.1497638 C33.9842501,76.9976886 33.9539468,76.8441442 33.924365,76.7523114 C33.8785494,76.6604785 33.8637585,76.5837063 33.8637585,76.5069341 C33.8637585,76.4308965 33.8933402,76.3842454 33.9539468,76.3699195 C33.999041,76.3390637 34.0744384,76.3390637 34.1498358,76.3390637 L34.3900975,76.3390637 L34.3900975,74.1666667 L29.2352941,74.1666667 L29.2352941,76.3390637 L29.3702158,76.3390637 C29.6407808,76.3390637 29.8363091,76.3842454 29.9564399,76.4918735 C30.0765707,76.5987669 30.1967016,76.7365161 30.2868899,76.9201817 C30.3020415,76.9510376 30.3020415,76.9668328 30.3168324,76.9976886 C30.3316233,77.0127492 30.3467749,77.0428704 30.3619266,77.057931 L31.3687889,78.6800658 L32.8265929,80.9450303 L32.8421052,82.2306897 L32.8421052,82.3375831 C32.8421052,82.5664304 32.7970111,82.7041797 32.7216137,82.7658913 C32.6314253,82.8118077 32.5567494,82.8426635 32.4665611,82.8426635 L31.7753578,82.8426635 L31.7753578,85 L37.095747,85 L37.095747,82.8426635 L36.4038222,82.8426635 C36.3284248,82.8426635 36.2537488,82.8118077 36.1790729,82.7658913 C36.1191879,82.7357702 36.0881631,82.5980209 36.0881631,82.3842341 L36.0881631,80.8983792 L37.8313229,77.6089278 C37.9067203,77.456118 37.9370236,77.287513 37.9976301,77.165559 C38.0420028,77.0278098 38.0870969,76.9201817 38.1321911,76.8290836 C38.206867,76.6604785 38.2977768,76.5219947 38.402756,76.4459571 C38.4929444,76.3699195 38.6585301,76.3390637 38.8536976,76.3390637 L39.2588235,76.3390637 L39.2588235,74.1666667 L35.2616774,74.1666667 L35.2616774,76.3390637 L35.2616774,76.3390637 Z" id="y_1_"></path>
                        <path d="M46.1019584,82.3519045 C45.9618502,82.4895864 45.8067971,82.5813744 45.6341838,82.6114808 C45.5415255,82.6272684 45.4634385,82.6423216 45.3853516,82.6423216 L44.4669888,82.6423216 L44.4669888,80.6086676 L45.3233303,80.6086676 C45.6199861,80.6086676 45.8688184,80.6997213 46.0556293,80.8832972 C46.2271218,81.0510856 46.3194064,81.3264494 46.3194064,81.678548 C46.3194064,81.9840184 46.2573852,82.2142226 46.1019584,82.3519045 M44.4673625,76.5233692 L44.871995,76.5233692 C45.245617,76.5233692 45.5721625,76.5699975 45.821742,76.6617855 C46.0862663,76.7678924 46.2271218,77.0289373 46.2271218,77.4570363 C46.2271218,77.7015595 46.1490348,77.9317636 46.008553,78.145446 C45.8527526,78.3440751 45.5882283,78.4358631 45.1832221,78.4358631 L44.4669888,78.4358631 L44.4673625,76.5233692 L44.4673625,76.5233692 Z M47.595699,79.3996367 L47.4096352,79.3996367 L47.4096352,79.2619547 L47.4873486,79.2619547 C48.0631,79.2619547 48.5928959,79.0482724 49.0599233,78.6352265 C49.541522,78.2221807 49.7754094,77.6571341 49.7754094,76.9070429 C49.7754094,75.7897999 49.3195906,74.7705864 48.5902806,74.4250965 C47.8344434,74.0663892 47.0502109,74.1864479 46.1333427,74.1842449 C45.9155211,74.1691917 45.713018,74.1691917 45.49557,74.1691917 L40.0941176,74.1691917 L40.0941176,76.3412619 L40.5764636,76.3412619 C40.7318903,76.3412619 40.85668,76.3563152 40.9508328,76.4179967 C41.0588095,76.462422 41.1055122,76.6467323 41.1055122,76.9529369 L41.1055122,82.2142226 C41.1055122,82.5204272 41.0588095,82.7040031 40.9508328,82.764216 C40.85668,82.8108443 40.7318903,82.841685 40.5764636,82.841685 C40.5618923,82.841685 40.5458266,82.8258975 40.5458266,82.8258975 L40.0941176,82.841685 L40.0941176,84.9979677 L44.3429464,84.9979677 C44.3429464,84.9979677 47.1850885,85.0207311 48.2928775,84.9138899 C49.4780063,84.7989714 50.1176471,83.5293604 50.1176471,82.0607531 C50.1176471,81.3723434 49.8998255,80.7456153 49.4951929,80.2092064 C49.0901867,79.6750005 48.4520404,79.3996367 47.595699,79.3996367" id="b"></path>
                        <path d="M56.3171546,79.7011215 C56.3171546,80.4722312 56.2434522,81.1165211 56.0964017,81.6355009 C55.9482882,82.1544808 55.6230054,82.4058557 55.121262,82.4058557 C54.6198729,82.4058557 54.2952988,82.1544808 54.1471853,81.6355009 C54.0001347,81.1165211 53.9409602,80.4722312 53.9409602,79.7011215 L53.9409602,78.6786369 C53.9409602,77.5787771 54.0291905,76.8710773 54.2067141,76.5415723 C54.3831747,76.2105575 54.5904628,76.0063626 54.8112157,75.9591826 C54.8710989,75.9437075 54.9153913,75.9437075 54.9738571,75.9437075 L55.2839034,75.9437075 C55.3281957,75.9437075 55.3873702,75.9437075 55.4313082,75.9591826 C55.6534785,76.0063626 55.8593492,76.2105575 56.0372272,76.5415723 C56.22857,76.8710773 56.3171546,77.5787771 56.3171546,78.6786369 L56.3171546,79.698102 L56.3171546,79.7011215 Z M59.8598316,77.1232072 C59.7719557,76.8238973 59.6677801,76.5260973 59.5356119,76.2260326 C59.4030892,75.9274776 59.2400935,75.6443977 59.0487507,75.3775477 C58.8116982,75.0155829 58.5615351,74.732503 58.2801903,74.4973579 C58.0147907,74.261458 57.7345089,74.0565081 57.4542271,73.8987383 C57.0113039,73.6635932 56.5836172,73.5058234 56.1693955,73.4431683 C55.7417088,73.3650383 55.4022525,73.3333333 55.121262,73.3333333 C54.8413345,73.3333333 54.4869959,73.3650383 54.0734828,73.4431683 C53.6454418,73.5220533 53.2170465,73.6790683 52.7595954,73.9157231 C52.4941958,74.0882131 52.2291506,74.276933 51.9478058,74.512833 C51.6816975,74.747978 51.4315345,75.0310579 51.1948363,75.3775477 C51.0031391,75.6443977 50.8401434,75.9274776 50.7228573,76.2260326 C50.5903347,76.5260973 50.4719856,76.8238973 50.383401,77.1232072 C50.2795798,77.4844171 50.2058774,77.8309069 50.1768216,78.175887 C50.1325293,78.5378518 50.1176471,78.8681117 50.1176471,79.1828966 C50.1176471,79.4659765 50.1328836,79.8434164 50.1768216,80.2989863 C50.2352875,80.7707862 50.3387543,81.242586 50.5013957,81.7460908 C50.5743895,81.9657608 50.6636828,82.1854308 50.7667953,82.4058557 C50.8709709,82.6425105 50.9882569,82.8621805 51.1360161,83.0663755 C51.5640571,83.6951903 52.1100928,84.1677451 52.7741233,84.481775 C53.4392168,84.78033 54.1181295,84.9690499 54.8264523,85 L55.4167803,85 C56.1251031,84.9690499 56.8043702,84.78033 57.4680463,84.481775 C58.1331398,84.1677451 58.6798842,83.6951903 59.1075709,83.0663755 C59.2553301,82.8621805 59.3726161,82.6425105 59.4764373,82.4058557 C59.5802585,82.1854308 59.6677801,81.9657608 59.7414826,81.7460908 C59.9044783,81.242586 60.0224731,80.7707862 60.0667654,80.2989863 C60.1107034,79.8434164 60.1411765,79.4659765 60.1411765,79.1828966 C60.1411765,78.8681117 60.1107034,78.5378518 60.0816476,78.175887 C60.0373553,77.8309069 59.9636528,77.4844171 59.8598316,77.1232072" id="o"></path>
                        <path d="M67.0234381,74.1666667 L67.0234381,76.339651 L67.2485605,76.339651 C67.3382492,76.339651 67.4135302,76.339651 67.4888111,76.3547106 C67.5637318,76.3697701 67.5936281,76.4322122 67.5936281,76.5082446 L67.5936281,76.5692175 C67.5781397,76.584277 67.5781397,76.6151308 67.5781397,76.6301903 C67.5781397,76.6452499 67.5637318,76.6452499 67.5637318,76.6610441 C67.5637318,76.675369 67.5637318,76.675369 67.5486036,76.6918978 C67.5486036,76.7069573 67.5338356,76.7370765 67.5338356,76.7528706 C67.5338356,76.7679302 67.517987,76.7829898 67.517987,76.7829898 L66.7075464,78.1144753 L66.618578,78.1144753 L65.8528017,77.1510307 C65.7328565,76.9974967 65.7033204,76.8454318 65.6737843,76.7528706 C65.6280395,76.6610441 65.6132714,76.584277 65.6132714,76.5082446 C65.6132714,76.4322122 65.6428075,76.3855643 65.7033204,76.3697701 C65.7627527,76.339651 65.8225452,76.339651 65.8978261,76.339651 L66.1528448,76.339651 L66.1528448,74.1666667 L60.9764706,74.1666667 L60.9764706,76.339651 L61.1270324,76.339651 C61.3964589,76.339651 61.5909647,76.3855643 61.7116303,76.4917158 C61.8319357,76.5993366 61.9367527,76.7370765 62.0264414,76.9207296 C62.0412094,76.9515834 62.0563377,76.9659083 62.0563377,76.9974967 C62.0707455,77.0132908 62.0865941,77.04341 62.1020825,77.0592041 L64.5917561,80.9151861 L64.5917561,82.3377636 C64.5917561,82.5673301 64.5470918,82.70507 64.4725313,82.7660428 C64.3968901,82.8126907 64.3075616,82.8428098 64.216432,82.8428098 L63.5421454,82.8428098 L63.5421454,85 L68.8388251,85 L68.8388251,82.8428098 L68.1634579,82.8428098 C68.0730487,82.8428098 67.9988484,82.8126907 67.9386957,82.7660428 C67.8634148,82.7359237 67.8331583,82.5981838 67.8331583,82.3836769 L67.8331583,80.8075654 L69.5739847,77.609429 C69.6489055,77.4566296 69.6950105,77.2887706 69.7396748,77.1653557 C69.7839789,77.0276158 69.8293636,76.9207296 69.874388,76.8296377 C69.9493088,76.6610441 70.0389975,76.5233042 70.1441747,76.4465371 C70.2493519,76.3697701 70.3991934,76.339651 70.5944195,76.339651 L71,76.339651 L71,74.1666667 L67.0234381,74.1666667 L67.0234381,74.1666667 Z" id="y"></path>
                        <path d="M24.2665915,79.8125325 L23.3669396,79.8125325 L24.2514713,76.9666429 L24.3717129,76.9666429 L25.1514832,79.8125325 L24.2651515,79.8125325 L24.2665915,79.8125325 Z M29.3354585,82.6734816 C29.2306971,82.5658609 29.1410559,82.3678827 29.0510548,82.0916684 C29.0359346,82.0615492 29.0359346,82.0306955 29.0211744,82.0005764 C29.0211744,81.9697227 29.0064142,81.9388689 29.0064142,81.9087498 L26.8463856,74.1666667 L22.7664517,74.1666667 L21.9272806,77.0577349 L20.516782,81.6325354 C20.5016618,81.6791833 20.4869016,81.7250966 20.4570212,81.7860695 C20.441901,81.8312482 20.4271408,81.8929556 20.4120206,81.9396035 C20.3518998,82.1074625 20.2618986,82.2609966 20.1567772,82.413796 C20.1268968,82.4597093 20.0970164,82.504888 20.066776,82.5515359 C19.916654,82.7351891 19.7067712,82.8420752 19.4371277,82.8420752 L19.2117647,82.8420752 L19.2117647,85 L23.1415766,85 L23.1415766,82.8420752 L22.9914547,82.8420752 C22.8416927,82.8420752 22.7513315,82.8270157 22.6915707,82.8112215 C22.6314499,82.7961619 22.5864493,82.7811024 22.5716891,82.7502486 C22.5414487,82.7193949 22.5266885,82.6734816 22.5266885,82.6283029 C22.5266885,82.5658609 22.5414487,82.504888 22.5565689,82.4439151 L22.6166897,82.2452024 L25.8408923,82.2452024 L25.9010131,82.5974492 C25.9010131,82.6125088 25.9010131,82.6283029 25.9161333,82.6283029 L25.9161333,82.6584221 C25.9161333,82.7502486 25.8858929,82.7961619 25.8110119,82.8112215 C25.7361309,82.8270157 25.6608899,82.8420752 25.5708888,82.8420752 L25.135643,82.8420752 L25.135643,85 L30.0705882,85 L30.0705882,82.8420752 L29.8452253,82.8420752 C29.6213023,82.8420752 29.4564201,82.7811024 29.3354585,82.6734816" id="a"></path>
                        <path d="M5.41906538,78.4060367 C5.2713241,78.573907 5.12464316,78.6965957 4.94756569,78.7575727 C4.84471231,78.7733679 4.72666066,78.8034891 4.62380728,78.8185497 C4.52060045,78.8185497 4.44708326,78.8336102 4.37356607,78.8336102 L4.15266104,78.8336102 L4.15266104,76.5084034 L4.46228153,76.5084034 C4.88853987,76.5084034 5.1978069,76.6152968 5.37488437,76.8456135 C5.55160839,77.0594003 5.6399704,77.3191035 5.6399704,77.6254578 C5.6399704,77.9769938 5.56645321,78.2374316 5.41906538,78.4060367 M7.81933103,74.9013292 C6.90637474,74.4722863 5.90470299,74.2276437 4.80017786,74.1817272 C4.65279002,74.1666667 4.50575564,74.1666667 4.3583678,74.1666667 L0,74.1666667 L0,76.3397984 L0.426965234,76.3397984 C0.648223709,76.3397984 0.780413276,76.3699195 0.854283917,76.4466918 C0.928154558,76.523464 0.971982115,76.692069 0.971982115,76.9517722 L0.971982115,82.2156291 C0.971982115,82.476067 0.92780111,82.644672 0.854283917,82.7207096 C0.780766724,82.7974818 0.648223709,82.8433982 0.426965234,82.8433982 L0,82.8268683 L0,85 L5.28652236,85 L5.28652236,82.8419289 L4.69767792,82.8419289 C4.46228153,82.8419289 4.31489369,82.7809519 4.25586787,82.6891191 C4.18235068,82.5972863 4.15336794,82.4444765 4.15336794,82.2148944 L4.15336794,81.1896729 L5.2713241,81.1896729 C6.44971987,81.1896729 7.31849515,80.9751515 7.8780034,80.5317826 C8.42302028,80.1020051 8.7909597,79.6127198 8.98217509,79.0925788 C9.05569228,78.8629967 9.11436465,78.6341494 9.14405429,78.4196279 C9.17374392,78.2058411 9.18823529,78.0056456 9.18823529,77.8227146 C9.18823529,76.3082079 8.73228732,75.3439633 7.81933103,74.8991252" id="p"></path>
                        <path d="M16.7914415,81.3126116 C16.7766413,81.4194978 16.7618411,81.4955302 16.7473933,81.5722972 C16.6596494,81.9855168 16.5571053,82.2308775 16.4249608,82.3219694 C16.3076165,82.413796 16.0577753,82.4597093 15.676142,82.4597093 L14.1640567,82.4597093 L14.1640567,76.9207296 C14.1640567,76.6610441 14.1929523,76.4917158 14.2666008,76.4314776 C14.3250968,76.3697701 14.4427935,76.339651 14.6334339,76.339651 L15.1764597,76.339651 L15.1764597,74.1666667 L10.0235294,74.1666667 L10.0235294,76.339651 L10.464011,76.339651 C10.7286524,76.339651 10.8752447,76.4013585 10.934093,76.50751 C10.9777888,76.6452499 10.9929414,76.7973147 10.9929414,76.9508488 L10.9929414,82.2150833 C10.9929414,82.3686173 10.9777888,82.5214168 10.9196452,82.6734816 C10.8752447,82.7811024 10.7286524,82.8420752 10.464011,82.8420752 L10.0235294,82.8270157 L10.0235294,85 L18.3035268,85 L18.3764706,81.0062781 L16.8351373,81.0062781 C16.8206895,81.1289584 16.8058893,81.220785 16.7914415,81.3126116" id="l"></path>
                    </g>
                    <g id="CNN_logo" transform="translate(305.250000, 30.000000)" fill="#3C425B" fill-rule="nonzero">
                        <path d="M32.9344555,0.0184983661 C29.6202809,0.253748928 26.8128547,3.03816567 26.8128547,6.96346105 L26.8128547,25.6400304 C26.8128547,26.31585 26.3118028,26.896679 25.5796677,26.896679 L19.7394287,26.896679 C7.09573242,26.912016 8.2184552,10.7734812 18.9820305,10.7534441 L25.4389868,10.7534441 L25.4389868,6.06203829 L18.7467367,6.06203829 C14.4601796,6.06203829 11.2817324,7.65956524 9.13610089,10.0424976 C6.99071709,12.4256773 5.91232861,15.6353261 5.90735606,18.8350801 C5.90217383,22.0343393 6.9652063,25.2241984 9.16111633,27.6068834 C11.3567787,29.985363 14.6759069,31.5883321 19.2227732,31.5883321 L30.2372459,31.5883321 C30.9646751,31.5883321 31.5657888,30.9622342 31.5657888,30.2357033 L31.5657888,7.45820461 C31.5605876,6.28665187 32.2226299,5.37533424 33.0847958,5.10990432 C33.9472094,4.84397965 34.9597156,5.17966316 35.5514175,6.03606426 L35.5769283,6.06080143 C38.7098029,11.1784288 51.1486698,31.1064519 51.1682363,31.1418261 C51.5090408,31.6269221 51.9157275,31.7125128 52.2109592,31.617522 C52.5066864,31.5175838 52.8076147,31.1972374 52.8029088,30.405895 L52.8029088,7.45770987 C52.7977076,6.28615712 53.4595023,5.37483949 54.3219158,5.10891483 C55.1843294,4.84348491 56.1718202,5.17916841 56.7684757,6.03507477 L56.7684757,6.06030669 L56.8138007,6.06030669 C59.9469229,11.1776867 72.3850468,31.1057098 72.4053564,31.1413313 C72.7409596,31.6217273 73.1372438,31.7172128 73.4480793,31.6167799 C73.758667,31.5168417 74.0699978,31.2167797 74.0643783,30.4301375 L74.0643783,0.136989448 L69.3423269,0.136989448 L69.3423269,17.8168978 C69.3423269,17.8168978 66.5244983,13.0104642 61.7019668,4.7331571 C56.9738004,-3.37346346 48.0554236,-0.0186074007 48.0554236,6.96148208 L48.0554236,17.8168978 C48.0554236,17.8168978 45.2881213,13.0104642 40.4601409,4.7331571 C38.3947569,1.18807214 35.5117891,-0.168514699 32.9349508,0.0165193919 L32.9344555,0.0184983661 L32.9344555,0.0184983661 Z M19.5739801,0.138721051 C-6.71081046,0.138721051 -6.4554548,37.5472709 19.9301405,37.567308 L30.2526019,37.567308 C34.689747,37.567308 37.5221886,34.9434356 37.517235,30.101133 L37.517235,20.6173938 C37.517235,20.6173938 43.312149,30.1862289 45.5888019,33.9363851 C49.4491058,40.3109084 58.7833333,39.0537651 58.7590609,31.0923517 L58.7590609,20.6173938 C58.7590609,20.6173938 64.5341607,30.1862289 66.8048694,33.9363851 C70.6654209,40.3109084 80.0254069,39.0537651 79.9999482,31.0923517 L79.9999482,0.133278871 L75.2776741,0.133278871 L75.2776741,30.4266743 C75.2828753,31.5883321 74.6713592,32.449928 73.8285121,32.7247581 C72.9866558,33.0000829 72.0184839,32.6552466 71.4319832,31.8235827 L71.4067201,31.8235827 L71.4067201,31.778561 C71.4067201,31.778561 58.9638903,11.904465 55.790149,6.72252094 C55.7799942,6.71262607 55.7747929,6.73241581 55.7648858,6.72252094 C55.7596846,6.72252094 55.7700871,6.69728902 55.7648858,6.69728902 C55.4391897,6.26166732 55.0173947,6.16667656 54.6718844,6.27180956 C54.3157239,6.38189 53.9801207,6.68739415 53.9853219,7.45869936 L53.9853219,30.4016897 C53.9905232,31.5584002 53.39362,32.469223 52.5614231,32.74999 C51.7294739,33.030757 50.7717044,32.6606888 50.1906527,31.8240774 L50.1906527,31.7990929 L50.1651419,31.7990929 C50.1651419,31.7990929 37.7121573,11.8856647 34.5483231,6.71831562 C34.2174257,6.24731976 33.7914202,6.13253925 33.4352597,6.24237232 C33.0795946,6.35245276 32.743496,6.65795691 32.7489449,7.42926211 L32.7489449,7.45424666 L32.7489449,30.2322401 C32.7489449,31.6135641 31.6106185,32.7707692 30.2320447,32.7707692 L19.218315,32.7707692 C14.3848856,32.7707692 10.7199995,31.0337246 8.29895044,28.4093574 C5.87790142,25.7857323 4.68409515,22.3057061 4.68929638,18.8308748 C4.69449761,15.3612382 5.88756085,11.8562275 8.24891955,9.23210764 C10.6100306,6.60798781 14.1547931,4.87589061 18.7370773,4.87069581 L25.429575,4.87069581 L25.429575,0.129815667 L19.5692742,0.129815667 L19.5739801,0.138721051 Z" id="CNN_1_"></path>
                    </g>
                    <g id="20181201033511!New_York_Post" transform="translate(0.250000, 32.000000)" fill-rule="nonzero">
                        <path d="M160.721254,0.834303261 L151.406883,0.834303261 L147.631705,3.6927248 L148.280467,0.7744149 L139.059394,0.7744149 L137.57033,2.11067395 C137.195902,1.89108329 136.427273,1.4388014 136.031837,1.1730468 C135.444862,0.843660817 134.139305,0.834303261 133.991634,0.834303261 L119.671908,0.834303261 L117.712029,2.37330936 C117.213409,1.91541294 115.952339,0.886081739 114.379863,0.549209711 C111.537666,-0.128901206 110.798077,-0.00725297334 109.878071,0.0389109713 C109.598794,0.0532592243 109.312103,0.0676074774 108.980308,0.0676074774 C106.959877,0.0676074774 104.776946,0.763809669 103.782178,1.12376367 L103.821104,0.773167226 L94.4807817,0.835550935 L90.5492828,4.01088172 L90.4442451,0.835550935 L81.340567,0.835550935 L79.2830641,2.37143785 L79.8589178,0.834927098 L71.6999609,0.834927098 L68.3943631,3.23358071 L68.2917969,0.834927098 L60.1260436,0.834927098 L57.5476773,2.77506045 L57.3437806,0.775662574 L35.3186133,0.775662574 L35.0961806,0.894191621 L35.1567317,0.771295714 L26.8155036,0.835550935 L24.1957402,2.75696917 L23.8342869,0.775662574 L15.0617865,0.775662574 L7.86361555,6.58982425 L0,35.7648134 L7.76166721,35.7648134 L11.8235364,32.7423227 L12.2511015,35.7648134 L19.813815,35.7648134 L20.9092963,34.832177 L21.2293523,34.8621211 L21.7668981,35.7648134 L36.7471259,35.7648134 L40.0638453,33.3150052 L39.6684093,35.7648134 L47.2045544,35.7648134 L51.7990265,32.5177414 L51.0328692,35.7648134 L58.7222458,35.7648134 L66.4221261,29.9194599 L75.6345491,10.8656037 L77.066151,23.2275594 L73.5690139,35.7648134 L82.0399944,35.7648134 L87.5760984,31.4740619 C88.1117906,32.538328 89.7652074,35.3044216 92.6685726,35.758575 C93.617619,35.9382401 95.1672338,35.9975047 95.2327279,36 L95.2450853,36 C96.4208895,36 97.143796,35.9893948 98.3498758,35.7579512 C99.7678845,35.4859582 100.54331,35.1528292 101.829713,34.5976142 L101.928572,34.5558171 C103.223007,33.9974829 104.860359,32.986243 105.779747,32.3935978 L105.101328,35.7641896 L113.11941,35.7641896 L116.185893,33.6356574 L115.658851,35.7641896 L132.524814,35.7641896 L136.201133,33.0891761 L137.066149,35.7641896 L146.384846,35.7641896 L153.720801,29.8252605 L150.379367,14.0215955 L160.719401,0.833679423 L160.721254,0.834303261 Z" id="Path" fill="#191F35"></path>
                        <path d="M221.539325,0.757177995 L219.932079,1.84638922 C219.530112,1.60468224 218.606708,1.06558387 217.897354,0.782878484 C216.005745,0.030221286 214.752554,-0.0230154426 212.757652,0.00574462918 C210.337139,0.0424596145 208.666425,0.291509598 206.240933,1.54960976 C205.168192,2.1064537 203.866466,3.17118828 203.26476,3.68519807 C202.861548,3.01209001 201.953078,1.6628143 200.904604,1.19469824 C198.492179,0.0993678416 196.952135,0.101203591 194.448242,0.178916976 C192.14471,0.251123114 190.808138,0.527709337 188.734212,1.36175142 C187.29186,1.94307202 185.478031,3.19138152 184.743788,3.71579389 C184.458802,3.22258926 183.922431,2.33469853 183.500552,1.88004463 C182.905691,1.09985119 181.340135,0.795728729 181.163419,0.763909075 L166.557581,0.757789911 L159.778276,6.05453845 L151.560976,35.0777343 L159.915169,35.0777343 L167.394493,29.4419841 L168.406256,26.4007595 C168.866713,26.4087144 169.868519,26.4129978 170.602763,26.3365082 C171.137889,26.2796 171.832931,26.1419188 172.301478,26.0409526 C172.12725,27.1442379 171.842265,29.7148988 172.663621,31.2997623 C174.200554,34.2638855 176.933432,34.8672351 179.655732,35.0771224 C180.282949,35.1303591 180.839854,35.1566715 181.357558,35.1566715 C183.213077,35.1566715 184.599428,34.8170579 186.506593,34.1922913 C188.438026,33.5589578 190.912052,31.983273 191.735276,31.4386674 C192.193867,32.0016305 193.330077,33.3172508 194.398463,33.9310029 C195.918595,34.8060434 197.030538,34.9125169 198.719297,35.0752866 C199.324114,35.1346425 199.862974,35.1627907 200.370099,35.1627907 C202.129794,35.1627907 203.56219,34.8341916 205.659139,33.9511962 C207.673952,33.1147064 210.669415,31.2281681 212.071322,30.3164126 L210.894044,34.8470418 L218.824492,34.8470418 L226.191813,29.3232723 L231.256846,11.892833 L237.319952,6.79801691 L239,0.758401827 L221.539947,0.758401827 L221.539325,0.757177995 Z" id="Path" fill="#191F35"></path>
                        <path d="M33.6258405,1.960793 L27.8954741,1.960793 L24.1820337,14.3317961 L22.8312427,1.960793 L15.5154873,1.960793 L8.36642002,28.7822733 L8.32752613,28.9316966 L13.9393588,28.9316966 L18.1207606,14.4563155 L19.7030628,28.9316966 L25.9693005,28.9316966 L33.5832424,2.11021628 M72.404283,1.960793 L66.1145855,14.7613881 L67.3381996,2.09153837 L67.3505468,1.96266079 L61.0750486,1.96266079 L55.1421871,14.4955391 L56.3602449,2.09153837 L56.3725922,1.960793 L35.7187021,1.960793 L28.4541879,28.7822733 L28.4140593,28.9316966 L42.5467405,28.9316966 L44.2630106,23.9845406 L36.42867,23.9845406 L38.2313709,17.6253344 L45.3526568,17.6253344 L46.8250684,12.6781784 L39.5864834,12.6781784 L41.3811586,7.02499729 L48.9951005,7.02499729 L47.4856471,28.8053094 L47.477004,28.931074 L53.8660971,28.931074 L60.6126435,14.4146015 L59.1507272,28.9316966 L65.3095437,28.9316966 L78.1877427,2.13076199 L78.2679999,1.96141559 M114.571433,15.7637693 L114.6307,15.7731083 L116.542057,9.02789196 L116.509954,9.02789196 C116.534648,8.90524034 116.590211,8.68982177 116.643304,8.48000657 C116.906918,7.4427599 117.39834,5.51333169 117.143368,4.52838318 C116.564282,1.80140815 114.67515,1.29087858 113.897889,1.19748903 C112.119883,0.861286628 111.642661,0.857551046 110.367806,0.845099105 L109.965285,0.841363523 C109.073812,0.832647164 108.502134,0.824553403 107.552629,0.962769945 C106.130224,1.16947216 105.332591,1.35500608 104.07317,1.97449013 C103.237877,2.38540417 102.787819,2.67802478 102.064269,3.28505689 C100.740025,4.3970152 99.4071375,6.7510546 99.3404623,6.8774418 L94.6670219,24.1980914 C94.648501,24.2889905 94.2163467,26.4655898 94.917054,27.5819063 C95.2998193,28.1920514 95.7029576,28.4410902 96.2604366,28.7835185 L96.4728096,28.9142639 C97.6606167,29.6576448 98.5378899,29.7821642 99.8664558,29.9689433 L100.022031,29.9913568 C100.656681,30.0816334 101.19317,30.1233474 101.71052,30.1233474 C102.487163,30.1233474 103.216887,30.0274674 104.144784,29.8730634 C105.42396,29.6595126 106.208012,29.5107119 107.445825,28.9217351 C108.415086,28.4610133 108.944784,28.1123589 109.806623,27.3739588 C110.794404,26.5272269 112.07852,24.8001427 112.177298,24.4888442 L112.179767,24.4888442 C112.83232,22.139163 114.544269,15.9947528 114.624526,15.7911636 L114.572668,15.7662597 L114.571433,15.7637693 Z M137.170017,4.40510896 C137.028024,3.8509976 136.866275,3.53969908 136.503265,3.12069127 C136.127908,2.68487335 135.824165,2.51365916 135.359291,2.26897853 C135.093825,2.1288942 134.66167,1.97449013 134.643149,1.96826416 L120.15178,1.96203819 L112.886031,28.7822733 L112.845902,28.9316966 L119.392423,28.9316966 L122.545298,18.0960178 L125.239471,18.09415 C125.460487,18.135864 126.065503,18.312059 126.206262,18.6171315 C126.301953,18.8244563 126.233426,19.2254088 126.198854,19.3617576 L123.746687,28.7828959 L123.707793,28.9304514 L130.603741,28.9304514 L133.429413,18.8381535 C133.447934,18.7802519 133.864654,17.4273486 133.417066,16.7350207 C133.19605,16.3950827 132.973799,16.2543758 132.666969,16.0595029 L132.563252,15.9935076 C132.328654,15.8440843 131.995278,15.7021322 131.76068,15.611233 C132.108873,15.4524708 132.723767,15.1610954 133.145426,14.8983594 L133.324461,14.7881597 C133.749207,14.526669 134.055419,14.3386447 134.451149,13.93956 C134.70612,13.68305 135.031471,13.2385157 135.046288,13.2198378 L137.170017,5.98401505 C137.178043,5.94416884 137.323123,5.00031173 137.170017,4.40510896 M180.243457,18.0487004 C180.576833,17.6041661 180.723148,17.2418147 180.894158,16.8221843 C180.962067,16.6497249 181.036151,16.4660588 181.131225,16.2618469 C182.691302,12.8562411 183.814903,6.98826407 183.822929,6.94281448 C183.836511,6.89549711 184.181,5.77855803 183.940228,5.05385507 C183.897013,4.87330193 183.883431,4.70520073 183.873553,4.54208031 C183.855032,4.2930415 183.836511,4.03404113 183.700691,3.73768494 C183.47844,3.24956886 183.233347,3.02356614 182.853051,2.6960801 C182.565977,2.44890907 182.336936,2.33933199 182.070235,2.2123222 C181.93318,2.14757211 181.784395,2.07535085 181.608447,1.97698052 L181.581283,1.96203819 L167.739997,1.96203819 L160.300769,28.7835185 L160.259406,28.9329418 L166.689245,28.9329418 L169.141412,20.8099183 C169.570479,20.8285962 171.438003,20.910779 173.026479,20.910779 C174.088344,20.910779 174.823007,20.8746684 175.207624,20.8036923 C176.226273,20.6231392 176.885,20.3971365 177.83327,19.897191 C178.853154,19.3617576 179.527315,19.0068773 180.244074,18.0505682 M202.277154,4.93680683 C202.243816,4.79796769 202.215417,4.65975115 202.187019,4.524025 C202.049964,3.86158175 201.921552,3.23524913 201.339996,2.91523425 C200.633115,2.44019271 200.074401,2.0647667 199.166877,1.73229988 C197.98154,1.29959494 197.196253,1.26099393 196.007212,1.2030924 L195.862131,1.19686643 C195.439237,1.17507553 195.098453,1.16573658 194.787919,1.16573658 C193.942131,1.16573658 193.219816,1.24044822 192.214749,1.43345331 C191.159058,1.63641994 190.557128,1.78833362 189.563791,2.20547363 C188.375984,2.70604165 187.668485,3.08209026 186.614029,3.99232713 C185.865167,4.63671506 184.942826,5.84268552 184.903932,5.89373848 L179.682891,24.0922499 C179.67363,24.1868846 179.471752,26.4406859 180.227405,27.5831515 C180.684254,28.2754794 181.12073,28.552535 181.781309,28.9715428 C182.871572,29.6644933 183.715508,29.774693 184.881707,29.9303423 C185.025553,29.9490202 185.175572,29.9676981 185.33053,29.9901116 C186.07754,30.0934627 186.660331,30.1395349 187.221514,30.1395349 C187.878389,30.1395349 188.524151,30.0785204 189.451431,29.9303423 C190.806543,29.7136785 191.573926,29.5505581 192.754324,28.9777688 C193.755688,28.4933883 194.31008,28.1167171 195.116974,27.3696007 C196.071418,26.4867581 197.157977,24.7982749 197.249964,24.4900894 L197.251199,24.4900894 C197.93462,22.1895933 199.725591,16.1740607 199.813257,15.9686037 L199.757694,15.9405869 L199.821282,15.9493032 L201.849321,8.73340356 L201.817218,8.73340356 C201.836974,8.64499478 201.872781,8.51051382 201.90797,8.37852325 C202.127752,7.55856295 202.534594,6.03133242 202.275302,4.93805203" id="Shape" fill="#3C425B"></path>
                        <path d="M194.535661,7.26839 C194.399291,6.97434741 193.825616,6.81678028 193.367596,6.73675603 C193.220869,6.71070162 193.076443,6.69767442 192.937196,6.69767442 C192.350286,6.69767442 191.886512,6.92223859 191.341031,7.21628118 C190.876682,7.46689977 190.439377,8.52024222 190.414635,8.5791748 L186.604325,22.6684055 C186.58994,22.7366432 186.268866,24.3495351 187.162465,24.7986634 C187.571,24.964295 188.022115,25.1162791 188.538826,25.1162791 C188.639521,25.1162791 188.741367,25.1100756 188.843788,25.0989095 C189.327126,25.0393565 189.722427,24.8185144 190.040624,24.6410963 L190.190228,24.5579704 C190.66551,24.2819177 190.842734,23.7267107 190.948608,23.3942068 C190.967596,23.3352743 190.988886,23.2664162 191.006148,23.2217515 L191.010176,23.2217515 C191.124105,23.2217515 191.163232,23.2217515 194.272703,10.9885871 L194.754314,8.8992718 C194.766973,8.86825465 195.101856,8.12136165 194.535661,7.26776966" id="Path" fill="#191F35"></path>
                        <path d="M89.6885744,11.6493948 L89.1200352,2.5176072 L82.4458795,2.5176072 L84.5655419,18.1462946 L81.6097561,29.0428386 L88.0453726,29.0428386 L91.1043606,18.551662 L102.088291,2.5176072 L95.491382,2.5176072 M144.314685,10.878462 L146.677831,2.51699486 L139.889967,2.51699486 L132.033621,28.894653 L131.989126,29.0428386 L139.071147,29.0428386 L142.521315,17.7758305 L144.596483,28.9479263 L144.613168,29.0422263 L152.044346,29.0422263 L148.98783,14.3602125 L158.306929,2.70375777 L158.455244,2.51638253 L151.966481,2.51638253 M222.184161,2.51638253 L220.893824,7.26628372 L225.040453,7.26628372 L218.88787,28.8952653 L218.845847,29.0422263 L225.226464,29.0422263 L231.421687,7.49713492 L235.863709,7.49713492 L237.291236,2.66456818 L237.334495,2.51638253 M215.650286,16.2364143 C215.197927,15.5610061 214.788826,15.1599251 214.317927,14.6957734 C214.111523,14.493702 213.891523,14.2775469 213.650512,14.0209776 C213.285905,13.6321433 212.970736,13.3308733 212.669781,13.0412377 C212.26995,12.6554652 211.892366,12.2929614 211.433827,11.7657389 C211.265737,11.5722403 211.107535,11.4148696 210.95613,11.2617852 C210.61995,10.9249997 210.330119,10.6341394 210.105175,10.1093663 C209.833265,9.47253537 209.654052,9.05308425 209.765288,8.38502415 C209.833265,7.97781978 209.885175,7.73410949 210.144108,7.46039468 C210.341861,7.25219996 210.530962,7.20321297 210.815231,7.12850781 L210.966636,7.08809354 C211.345456,6.98277151 211.553714,6.93133517 211.913995,6.97542346 C212.33422,7.02747214 212.581411,7.15116429 212.898433,7.46345636 C213.154894,7.71635171 213.260568,7.89944059 213.335961,8.21785604 C213.398995,8.49034618 213.36686,8.68506947 213.323602,8.93061677 C213.306298,9.03777581 213.286523,9.15105823 213.274163,9.28087376 L213.269838,9.31761401 C213.228433,9.74257616 213.203096,9.99914553 213.102984,10.4241077 C213.005961,10.8282504 212.75877,11.4442618 212.756916,11.4503852 L212.692647,11.6095929 L219.148038,11.6095929 L219.172757,11.5250903 C219.176465,11.5103942 219.597926,10.0352734 219.81669,9.08798748 C219.879724,8.81733435 219.945229,8.5840338 220.008263,8.36420468 C220.154724,7.84861659 220.281409,7.40283496 220.288207,6.74579693 L220.288207,6.66619307 C220.298094,5.67543116 220.304274,4.96022108 219.743151,4.07600588 C219.347645,3.45448342 218.983038,3.15872446 218.363825,2.76682852 C217.741522,2.37248324 217.297196,2.25858848 216.626073,2.08407232 L216.518545,2.05651714 C215.785005,1.86669255 215.323376,1.83240165 214.624444,1.78096531 L214.133152,1.74422507 C213.637534,1.70503547 213.246354,1.6744186 212.831692,1.6744186 C212.438658,1.6744186 212.054276,1.70319846 211.621692,1.7644322 C211.234838,1.81954257 210.95613,1.89302306 210.661973,1.97140224 C210.488939,2.01793988 210.309726,2.0657022 210.093434,2.11407686 C209.831411,2.17224891 209.608939,2.20776448 209.392647,2.24144304 C209.018153,2.3014521 208.663434,2.35778714 208.206131,2.52495525 C207.478771,2.79193436 207.069052,3.07483423 206.500513,3.46795484 L206.252086,3.63818464 C205.617424,4.07294419 205.258379,4.33624927 204.717031,4.86898281 L204.571188,5.00982041 C204.152199,5.42008647 203.84939,5.71400842 203.528042,6.2834822 C203.249952,6.77825082 203.14984,7.12605846 203.010177,7.60613098 L202.933548,7.87127307 C202.754334,8.48177346 202.662874,8.80080124 202.579447,9.39354384 L202.546694,9.62439504 C202.457705,10.2306091 202.394672,10.6702673 202.523211,11.3420014 C202.615907,11.8361577 202.754952,12.1257933 202.946525,12.5274866 L203.056525,12.7589502 C203.443997,13.5874427 203.851244,14.0877223 204.325233,14.6663812 C204.51866,14.9051928 204.720738,15.1519647 204.939502,15.4440497 C205.491356,16.1788545 205.804671,16.5940193 206.404109,17.303106 C206.684671,17.6337682 206.92321,17.8848265 207.151861,18.1273121 C207.400288,18.3893926 207.635738,18.6373892 207.924333,18.9821352 C208.026917,19.1046026 208.120232,19.210537 208.208603,19.3097357 C208.424895,19.5522213 208.595457,19.7444952 208.789501,20.0678094 L208.83894,20.1504749 C209.106524,20.5913578 209.267198,20.8577246 209.360513,21.362903 C209.461861,21.9115573 209.449501,22.2385454 209.304895,22.7590322 C209.185007,23.1876684 209.103434,23.4448501 208.806187,23.7510188 C208.450232,24.1196459 208.142479,24.2715056 207.587535,24.3541711 C207.408322,24.3805017 207.261861,24.3921361 207.126524,24.3921361 C206.80085,24.3921361 206.52276,24.3155939 206.199558,24.1349544 C205.834952,23.932883 205.655738,23.7969441 205.485794,23.4858767 C205.320794,23.1846067 205.32203,22.9568172 205.323884,22.6120713 L205.323884,22.4981765 C205.323884,22.1932325 205.38321,21.9911611 205.456749,21.7358164 C205.489502,21.6231464 205.522873,21.5031282 205.555626,21.3653523 C205.653266,20.9416148 205.844839,20.2784534 205.846075,20.2711054 L205.888098,20.1241444 L199.226301,20.1241444 L199.195403,20.1951755 C199.186133,20.217832 198.959335,20.7622 198.843156,21.1302147 C198.703493,21.5631373 198.645403,21.8588963 198.571245,22.2348714 C198.546526,22.3622376 198.519953,22.4969518 198.488436,22.6481992 C198.432819,22.9115042 198.371021,23.1405184 198.314167,23.3554489 C198.180066,23.8587902 198.063886,24.2935497 198.077482,24.93283 C198.092931,25.686005 198.159673,26.1777119 198.495852,26.945583 C198.751695,27.5285282 198.960571,27.891032 199.457425,28.3723292 C199.87765,28.7789212 200.217537,28.9418029 200.69029,29.1665308 L200.889279,29.2620554 C201.865683,29.7335552 202.498492,29.862146 203.612705,30.0256401 C204.144165,30.103407 204.604559,30.1395349 205.064952,30.1395349 C205.594558,30.1395349 206.094502,30.0942219 206.798378,30.0256401 C208.177704,29.8909259 208.966243,29.7788682 210.215793,29.3239015 C211.146467,28.9852789 211.67422,28.7238108 212.576467,28.154337 C213.394051,27.6381366 213.890287,27.3111484 214.586129,26.5720572 C215.283208,25.8323536 215.629275,25.3247259 216.068039,24.3994841 C216.550061,23.383004 216.694668,22.7627063 216.838039,21.7603099 C217.026522,20.4358241 217.108713,19.6875478 216.776241,18.4702211 C216.519163,17.5345695 216.195342,17.05266 215.650286,16.2370266" id="Shape" fill="#3C425B"></path>
                        <path d="M109.904229,6.39177359 C109.55865,5.99566137 109.177087,5.92649892 108.713006,5.87619896 C108.286772,5.82904274 108.03798,5.8931752 107.61733,5.99817637 C107.232664,6.09437505 107.020477,6.16793875 106.701577,6.36913861 C106.43045,6.54267349 106.104104,6.90986323 106.090455,6.92621072 L101.722638,22.0759313 C101.712711,22.1086263 101.483153,22.8794733 101.666799,23.3447479 C101.82687,23.7509201 102.076282,23.94206 102.427445,24.1199961 C102.648317,24.2319136 102.8543,24.2790698 103.11612,24.2790698 C103.220352,24.2790698 103.327066,24.2727823 103.442466,24.2646085 C103.510713,24.2595785 103.583303,24.2545485 103.687535,24.2501473 C104.239717,24.2249973 104.636791,24.2061348 105.126929,23.8747838 C105.480574,23.635859 105.660498,23.4384316 105.868962,23.0611819 C105.927903,22.9530369 105.948377,22.7971071 105.966369,22.6587822 C105.972573,22.6210572 105.978778,22.5682422 105.986223,22.5267447 L106.001113,22.5267447 C106.123338,22.5267447 106.164906,22.5267447 109.517702,10.1259172 L110.040103,8.00451621 C110.05065,7.97936623 110.306887,7.38331165 110.223129,6.98091193 C110.167291,6.71054962 110.055614,6.56593722 109.903609,6.39114485 M129.883889,7.46379159 C129.872722,7.39462914 129.867758,7.32735294 129.862795,7.26259173 C129.842941,7.03184064 129.823087,6.8130358 129.611521,6.62000968 C129.427254,6.45213355 129.270286,6.39868984 129.025216,6.35341987 C128.851496,6.32072489 128.476757,6.34964737 128.475517,6.35090487 L125.865994,6.35090487 L123.903579,12.7390004 L123.857667,12.8924153 L127.385424,12.8924153 L127.407139,12.8836128 C127.430094,12.8735528 127.974831,12.6459454 128.261469,12.3869006 C128.601464,12.0788133 128.721827,11.7744986 128.861423,11.4223988 C128.901751,11.3205414 128.944561,11.2123965 128.995436,11.0973353 C129.241125,10.5421494 129.332328,10.1655284 129.459516,9.64492381 L129.530866,9.35318401 C129.5805,9.15009791 129.640681,8.97216178 129.698381,8.7998844 C129.84108,8.3723347 129.965166,8.00325871 129.883269,7.46379159" id="Shape" fill="#191F35"></path>
                        <path d="M176.631942,7.00874203 C176.581829,6.98687008 176.530464,6.96378304 176.474087,6.93705066 C176.139587,6.77787154 175.692333,6.69767442 175.143601,6.69767442 C174.22717,6.69767442 173.348949,6.92064671 173.311991,6.93036757 L173.246218,6.94677153 L170.740595,15.3990617 L170.714286,15.4859419 L170.795718,15.5302933 C170.810752,15.5394066 171.194113,15.752658 171.47349,15.8279947 C171.675192,15.8838897 171.854344,15.9069767 172.068575,15.9069767 C172.162536,15.9069767 172.255244,15.9033314 172.357975,15.8990785 C172.426879,15.8954332 172.498289,15.893003 172.577217,15.8905728 L172.693728,15.8881426 C173.151004,15.8759915 173.451679,15.8687008 173.915219,15.7119519 C174.595496,15.4835117 174.997649,15.1870253 175.454299,14.5794714 C175.711125,14.2362035 175.801954,13.9512607 175.906564,13.6213589 C175.950412,13.4834442 175.998019,13.3358086 176.061286,13.1735917 C176.551762,11.9141324 177.06792,9.8478415 177.071052,9.8332602 C177.079822,9.80470517 177.292173,9.12242211 177.312218,8.6558207 C177.318482,8.54038546 177.33289,8.43102575 177.345418,8.32652648 C177.388013,7.99723225 177.426851,7.68616465 177.168771,7.37266682 C177.000895,7.16974381 176.830512,7.09501468 176.631942,7.00874203 Z" id="Path" fill="#191F35"></path>
                    </g>
                    <g id="BBC_logo" transform="translate(586.250000, 35.000000)" fill="#3C425B" fill-rule="nonzero">
                        <path d="M56.3107447,18.7410537 C56.3107447,21.8919901 52.3629218,21.7051782 52.3629218,21.7051782 L48.4154283,21.7051782 L48.4154283,16.0105257 L52.3629218,16.0105257 C56.4280101,15.9872969 56.3107447,18.7410537 56.3107447,18.7410537 M48.4150989,7.32819269 L51.4231522,7.32819269 C54.5481414,7.49177572 54.4305467,9.80222247 54.4305467,9.80222247 C54.4305467,12.6727775 50.9764899,12.7195623 50.9764899,12.7195623 L48.4150989,12.7195623 L48.4150989,7.32819269 L48.4150989,7.32819269 Z M55.5821186,13.840106 C55.5821186,13.840106 58.2844915,12.6963335 58.2611043,9.66186823 C58.2611043,9.66186823 58.6718624,4.69123421 52.0397834,4.08434116 L44.6787488,4.08434116 L44.6787488,24.9264567 L53.1146057,24.9264567 C53.1146057,24.9264567 60.1640308,24.9493569 60.1640308,19.0443366 C60.1643602,19.0443366 60.3287293,15.030009 55.5821186,13.840106 M36.5360551,0 L67.519795,0 L67.519795,29 L36.5360551,29 L36.5360551,0 Z" id="B"></path>
                        <path d="M20.3026147,18.7410537 C20.3026147,21.8919901 16.3551211,21.7051782 16.3551211,21.7051782 L12.4072982,21.7051782 L12.4072982,16.0105257 L16.3551211,16.0105257 C20.4202094,15.9872969 20.3026147,18.7410537 20.3026147,18.7410537 M12.4072982,7.32819269 L15.4150221,7.32819269 C18.5403408,7.49177572 18.422746,9.80222247 18.422746,9.80222247 C18.422746,12.6727775 14.9683598,12.7195623 14.9683598,12.7195623 L12.4072982,12.7195623 L12.4072982,7.32819269 Z M19.5743179,13.840106 C19.5743179,13.840106 22.2766908,12.6963335 22.2533037,9.66186823 C22.2533037,9.66186823 22.6640617,4.69123421 16.0319827,4.08434116 L8.67094809,4.08434116 L8.67094809,24.9264567 L17.1071345,24.9264567 C17.1071345,24.9264567 24.1568889,24.9493569 24.1568889,19.0443366 C24.1565595,19.0443366 24.3209286,15.030009 19.5743179,13.840106 M0.527925062,0 L31.5116649,0 L31.5116649,29 L0.527925062,29 L0.527925062,0 Z" id="B_1_"></path>
                        <path d="M96.3696606,5.57818141 L96.3696606,9.42892599 C96.3696606,9.42892599 92.5864959,7.11847924 88.4031097,7.07169449 C88.4031097,7.07169449 80.6019178,6.92054377 80.2494593,14.5 C80.2494593,14.5 79.967163,21.4725632 88.3092305,21.8687613 C88.3092305,21.8687613 91.8107578,22.2888425 96.5574189,19.2779332 L96.5574189,23.269032 C96.5574189,23.269032 90.189778,27.0265343 82.8108775,24.1324233 C82.8108775,24.1324233 76.6076074,21.8805393 76.372086,14.5 C76.372086,14.5 76.1135067,6.90876579 84.3850825,4.38827843 C84.3850825,4.38827843 86.5940422,3.54778881 90.5652945,3.92141245 C90.5649651,3.92108529 92.9386251,4.15468186 96.3696606,5.57818141 M71.7067869,29 L102.690527,29 L102.690527,0 L71.7067869,0 L71.7067869,29 L71.7067869,29 Z" id="C"></path>
                    </g>
                    <g id="Group-38" transform="translate(753.250000, 34.000000)">
                        <path d="M155.264254,24.1351656 C156.747116,23.2206005 157.115808,22.0158121 157.127441,20.6870849 C157.152222,17.7042911 157.150199,14.7204645 157.110245,11.7371543 C157.092038,10.3464577 156.731438,9.08176555 154.879377,8.36550257 C157.900228,7.78505586 160.486639,7.28878425 163.145372,6.77805312 C163.190889,7.4855371 163.233878,8.15532303 163.279901,8.86280701 C168.329319,5.30834552 171.394676,6.52862628 173.06062,9.26767375 C174.66031,7.78867074 176.495175,6.80232447 178.688617,6.70317343 C181.493512,6.57613616 183.374905,8.16048714 183.528653,11.0048826 C183.685942,13.9277726 183.579229,16.8646057 183.641436,19.7942091 C183.675827,21.3857899 183.651045,23.03934 185.688716,24.1666667 L175.946435,24.1666667 C178.004335,22.5554623 177.550171,20.3147521 177.582539,18.1995299 C177.607827,16.547529 177.590125,14.8950117 177.587597,13.2430107 C177.583045,9.96637873 176.327265,8.97383551 173.06062,9.74328889 C174.375066,14.4178473 172.006635,19.584546 174.678011,24.1547892 L165.600287,24.1547892 C167.320852,22.9396726 167.415427,21.2757942 167.392163,19.5463315 C167.361817,17.2018226 167.378002,14.8567972 167.389128,12.5117718 C167.391657,11.8616095 167.342599,11.2264232 167.013355,10.6578539 C166.267878,9.36992326 165.050535,9.31673286 163.820043,9.56151199 C162.69323,9.78615106 163.25866,10.7766286 163.246522,11.3947734 C163.189878,14.431274 163.232866,17.4693238 163.235395,20.5073736 C163.236912,21.8975538 163.496868,23.1689593 165.146122,24.1351656 L155.264254,24.1351656 Z" id="Fill-1" fill="#3C425B"></path>
                        <path d="M82.5129945,15.9635554 C82.5129945,17.5027049 82.5124897,19.0423533 82.5129945,20.5815028 C82.514509,22.3765951 83.7064325,23.0211919 85.3310025,22.0892207 C86.1892278,21.5967926 86.6607469,20.7990293 86.9747564,19.9099646 C87.8551946,17.4188874 87.8769027,14.8888948 87.2907853,12.33695 C87.0913741,11.4698376 86.7172888,10.6835493 86.0498924,10.0688873 C85.2492187,9.3309936 84.3061805,9.18830422 83.2818634,9.54502768 C82.2570414,9.90175114 82.5266251,10.7653712 82.5180429,11.5002714 C82.5013832,12.9875338 82.5129945,14.476293 82.5129945,15.9635554 M74.1089494,8.21093182 C76.9829945,7.72548857 79.5268753,7.4366174 81.9874577,6.75759554 C82.4625107,6.62638118 82.5104703,6.8992871 82.5109751,7.2395464 C82.5119848,7.79034738 82.51148,8.34164728 82.51148,9.0371333 C83.370715,8.45440182 84.0557807,7.91557478 84.8084948,7.49249576 C87.8461075,5.78770685 91.2123701,6.79401626 92.8036207,9.85036301 C96.4152348,16.7887591 92.0917986,23.9357012 84.1925919,23.9376968 C82.683125,23.9376968 82.3983962,24.3792356 82.4670542,25.7118347 C82.5967977,28.2373371 82.6452622,28.486794 84.6651207,30 L74.7243474,30 C76.6664608,28.5122387 76.3332675,26.4128088 76.3413449,24.4091705 C76.3574997,20.3969046 76.3529562,16.3846388 76.3413449,12.3723729 C76.3373062,10.7523994 76.256532,9.14739328 74.1089494,8.21093182" id="Fill-3" fill="#3C425B"></path>
                        <path d="M11.6575875,2.21518731 C14.1813793,1.7504856 16.5168749,1.33472642 18.8456086,0.885666138 C19.750158,0.711592208 20.1116657,0.952772899 20.0903393,1.89680862 C20.0367634,4.28792848 20.0726541,6.68207571 20.0726541,9.04494009 C20.5974904,9.36079598 20.8045121,8.93191818 21.0718717,8.73564352 C22.0346785,8.02976112 23.1025566,7.55597729 24.2765463,7.2814955 C27.8068378,6.45603188 30.3592381,8.20888067 30.516845,11.6817817 C30.6489644,14.5910869 30.6682101,17.5064468 30.6822543,20.4192838 C30.6890163,21.8350851 30.9303682,23.1136455 32.4747082,24.1565754 L22.6110102,24.1565754 C24.6156873,22.8548052 24.346247,20.9874208 24.353009,19.1992526 C24.3613315,16.9095498 24.3582106,14.6193423 24.3405253,12.3291349 C24.3306424,11.0324103 23.7605526,10.1272258 22.3389691,9.89260445 C20.4352021,9.57826225 20.0747347,9.87494477 20.0736944,11.7382927 C20.0726541,14.5487036 20.069013,17.3596192 20.0773355,20.1700302 C20.0814967,21.6690842 20.341054,23.0773171 21.9883847,24.1666667 L12.0778727,24.1666667 C14.2646041,22.3996901 13.7704569,20.0040292 13.7923034,17.740059 C13.8271538,14.0446461 13.8032267,10.3492332 13.7995856,6.65382023 C13.7980251,4.90349426 13.6477003,3.20816555 11.6575875,2.21518731" id="Fill-5" fill="#3C425B"></path>
                        <path d="M112.049657,22.9918642 C112.804454,22.4560799 112.964329,22.3265213 112.97509,21.3602514 C113.014034,17.9504336 113.00686,14.5406158 112.979702,11.130798 C112.969453,9.86618196 112.252063,8.98249924 110.747082,8.2820568 C113.650974,7.81389078 116.123407,7.47528338 118.528201,6.81871538 C119.118511,6.65715423 119.150793,6.98130887 119.153868,7.39166387 C119.156942,7.85931372 119.15438,8.32696358 119.15438,9.00624305 C120.531769,8.11688246 121.698553,7.22907038 123.171252,6.88323661 C126.629072,6.07078532 129.116878,7.56148374 129.429455,11.0647283 C129.704113,14.1323255 129.560122,17.2376031 129.59343,20.3258471 C129.608802,21.7577021 129.775852,23.1193581 131.564202,24.1171144 L121.612978,24.1171144 C123.365972,22.9996067 123.440273,21.353025 123.45872,19.7079918 C123.485366,17.4161978 123.480754,15.12492 123.457183,12.8331261 C123.451034,12.2529512 123.400304,11.6516134 123.237354,11.0987955 C122.852526,9.78772415 121.617078,9.25452073 119.990139,9.49660438 C118.507192,9.71752506 119.213309,10.8272902 119.193324,11.5039888 C119.110824,14.2722075 119.140545,17.0450717 119.178976,19.8163875 C119.211259,22.2005758 119.343976,22.4762105 120.832048,24.1666667 L111.55927,24.1666667 C111.313307,23.6128165 112.493926,23.6092033 112.083989,22.9567646 L112.049657,22.9918642 Z" id="Fill-7" fill="#3C425B"></path>
                        <path d="M103.174858,18.2229807 C103.174858,17.5012774 103.190313,16.7780738 103.171368,16.0563706 C103.139459,14.8420286 102.563111,14.534442 101.518605,15.156117 C99.9560836,16.0868791 99.6903452,19.7934229 101.083352,20.9822577 C101.623305,21.4428874 102.251006,21.4858995 102.838821,21.295846 C103.417662,21.1082932 103.134473,20.5031228 103.163889,20.0795035 C103.206766,19.46333 103.174858,18.842155 103.174858,18.2229807 M111.579767,22.5401964 C110.005778,23.1243609 108.604295,24.1176406 106.803955,24.1641537 C105.081891,24.2081661 103.876845,23.6825181 103.30648,21.917521 C101.9389,23.2323913 100.52944,24.2616812 98.5211964,24.1536507 C96.4765569,24.0441199 95.0092627,23.2649005 94.3905361,21.7194653 C93.7264396,20.059998 94.1955949,18.1269536 95.5965792,16.7695714 C97.0703549,15.3411692 98.9908502,14.9060466 100.876446,14.3378866 C101.734985,14.079814 103.21574,14.7339982 103.201282,12.8579699 C103.179345,10.0156695 102.631914,8.86284488 100.702444,8.31869164 C99.808008,8.06662066 98.9006089,7.8980732 97.9627969,8.08212503 C97.9652898,8.68329432 98.5326635,8.58276601 98.8442704,8.78832389 C99.9929778,9.54753768 100.326522,10.6223403 99.990485,11.8901974 C99.6758867,13.0775317 98.767989,13.7022076 97.5968459,13.7802296 C96.3524128,13.863253 95.3801994,13.3005945 94.8965856,12.0992562 C94.4139689,10.9029194 94.7295644,9.88063148 95.6603963,9.02188966 C98.7495419,6.16808604 102.370663,6.30312407 106.051612,7.36092194 C108.208928,7.98059644 109.263905,9.68407613 109.309773,12.098256 C109.35614,14.523939 109.365613,16.9521228 109.325229,19.3778059 C109.302793,20.7611954 109.590967,21.8344977 111.182904,22.1060741 C111.326492,22.1300809 111.42521,22.4131606 111.545365,22.5747061 C111.546362,22.574206 111.579767,22.5401964 111.579767,22.5401964" id="Fill-9" fill="#3C425B"></path>
                        <path d="M68.4851322,18.1516268 C68.4851322,17.4788693 68.5065257,16.805609 68.4774917,16.1338571 C68.4581357,15.6984251 68.6868419,15.1317602 68.0995407,14.9024796 C67.5229362,14.6777243 66.9585566,14.830578 66.4583573,15.1946112 C64.9389127,16.3012923 64.741278,19.7410039 66.1242119,20.9713758 C66.6896103,21.4746869 67.3451668,21.579271 68.0414728,21.3489848 C68.7612097,21.1116593 68.4357236,20.4811377 68.4729074,20.0130232 C68.5218067,19.3960774 68.4851322,18.7720923 68.4851322,18.1516268 M62.3559079,7.95467445 C65.5909037,6.3954659 68.9216606,6.16970497 72.1841622,7.73142756 C73.9842684,8.59324099 74.5206329,10.3239072 74.5440638,12.1933484 C74.5741165,14.5806823 74.6321844,16.9695245 74.5848132,19.3563555 C74.5552699,20.8190249 74.9092806,21.9297284 76.6070039,22.2258825 C73.791218,24.9108788 70.076907,24.7595335 68.4275737,21.8985543 C67.072655,23.1937885 65.6158627,24.2562224 63.5845034,24.1606888 C61.7589287,24.0752114 60.1814163,23.5201111 59.4718667,21.7693326 C58.7449987,19.9778266 59.1672647,18.2788373 60.5440862,16.8910864 C62.3044618,15.1171787 64.6674196,14.5987834 67.0237557,14.2322361 C68.1392714,14.0587672 68.5477845,13.7500429 68.5126381,12.5976063 C68.4107645,9.19811938 67.1271573,7.92249472 63.6262716,7.95417164 C63.2029868,7.95819411 62.7797021,7.95467445 62.3559079,7.95467445" id="Fill-11" fill="#3C425B"></path>
                        <path d="M194.069114,11.4509514 C194.030478,10.7975755 194.052897,10.1663479 193.942713,9.56179904 C193.793416,8.74029715 193.566847,7.86795476 192.565175,7.80503335 C191.60834,7.7446288 191.167604,8.44330811 190.926726,9.29752913 C190.573756,10.5479033 190.488375,11.8360304 190.483605,13.131708 C190.482651,13.4251735 190.413011,13.8459918 190.846592,13.8162929 C191.832524,13.7488412 192.898112,13.8167963 193.769567,13.4312139 C194.44021,13.1347282 193.912186,12.105334 194.069114,11.4509514 M198.819902,19.4626083 C197.867836,22.1843367 195.340284,24.0296958 192.580916,24.1570487 C189.444728,24.3020196 186.855644,22.8034834 185.723755,19.9770538 C184.421104,16.7267855 184.555137,13.4835645 186.329528,10.4396785 C188.202655,7.22716315 191.870205,5.90380011 195.273029,7.10333382 C197.90361,8.03104705 199.559231,11.4413873 198.845182,14.3448327 C198.661065,15.0933458 198.167384,14.8114579 197.795334,14.816995 C195.711856,14.8456871 193.627901,14.8577681 191.544901,14.816995 C190.750241,14.8018938 190.421597,14.901058 190.573756,15.9128342 C191.180483,19.9458447 193.428521,21.4393473 197.142816,20.1502135 C197.649853,19.9750403 198.138765,19.7439929 198.819902,19.4626083" id="Fill-13" fill="#3C425B"></path>
                        <path d="M37.3470724,11.5632644 C37.3171977,13.8575756 37.0300151,14.1065199 39.2455616,13.6378005 C39.5375627,13.5764445 39.8440193,13.567392 40.14373,13.5678949 C40.7214682,13.5689008 40.9180631,13.2621209 40.9315549,12.6948295 C40.9623933,11.4465875 40.9137264,10.2053862 40.6217253,8.99335421 C40.4660877,8.34559603 40.0415778,7.88140286 39.3713244,7.81099436 C38.7001073,7.74008294 38.2341583,8.11727133 37.9378206,8.72278441 C37.4497065,9.72007049 37.3427358,10.7958118 37.3470724,11.5632644 M45.603091,19.8961101 C43.710384,23.3702666 40.6140157,24.8116291 37.0064044,23.8988333 C33.8025835,23.0886326 31.7402653,20.1867967 31.6463046,16.3580831 C31.5272876,11.4812888 33.8970261,7.86832699 37.8457872,6.90775391 C42.5597261,5.76110123 46.0372379,8.81029211 45.7847485,13.8103013 C45.7418638,14.6582208 45.4411894,14.8558675 44.7010677,14.8432946 C42.6430862,14.8095991 40.5817317,14.8925805 38.5261595,14.8080903 C37.4400695,14.7633306 37.2743131,15.2209859 37.3841749,16.1800502 C37.7836285,19.6592358 40.1201194,21.256 43.5340269,20.3155436 C44.1618775,20.1430428 44.7637082,19.8719701 45.378067,19.6466629 C45.4527538,19.7296443 45.5279224,19.8131287 45.603091,19.8961101" id="Fill-15" fill="#3C425B"></path>
                        <g id="Group-19" transform="translate(200.677043, 6.666667)">
                            <mask id="mask-2" fill="white">
                                <use xlink:href="#path-1"></use>
                            </mask>
                            <g id="Clip-18"></g>
                            <path d="M11.5426647,5.50415 C10.4738675,4.31615 9.65277856,3.34015 8.76162075,2.43315 C8.01948269,1.67765 7.12487079,1.18415 6.00031451,1.35165 C5.13432229,1.48065 4.39958588,1.82315 4.16470708,2.74665 C3.94709878,3.60315 4.33346453,4.28965 5.03464684,4.72865 C5.81379311,5.21715 6.65807384,5.60065 7.47324145,6.03115 C8.51539277,6.58015 9.63106707,7.02615 10.5863724,7.70015 C13.6595346,9.86815 13.6027886,13.85815 10.4871904,15.98865 C7.44067422,18.07215 4.13904805,17.57815 0.827059576,16.84215 C0.357301974,16.73765 0.301542931,16.38665 0.298088831,16.02465 C0.284765874,14.50015 0.292167517,12.97515 0.292167517,11.26515 C1.16062695,12.51815 1.92990437,13.71015 2.94540977,14.68965 C3.76501836,15.47965 4.62064828,16.24465 5.86017674,16.22865 C6.96894284,16.21415 7.86996951,15.84165 8.26324346,14.68365 C8.66490595,13.49915 8.16208768,12.60215 7.1998741,12.06465 C5.68204387,11.21715 4.0211152,10.62215 2.52450301,9.74315 C-0.389277072,8.03265 -0.74801003,4.54515 1.65653702,2.14665 C2.83093103,0.97515 4.27918582,0.34365 5.89915873,0.15765 C7.55465952,-0.03285 9.16525701,0.32115 10.7743742,0.68965 C11.440522,0.84265 11.5633893,1.19465 11.5505598,1.78015 C11.5249008,2.90865 11.5426647,4.03765 11.5426647,5.50415" id="Fill-17" fill="#3C425B" mask="url(#mask-2)"></path>
                        </g>
                        <path d="M49.4984467,8.13652188 C52.1479474,7.68418494 54.502847,7.37071897 56.7885129,6.71309453 C57.4144807,6.53296481 57.4278499,6.90379053 57.4264175,7.36367479 C57.4111384,11.9298123 57.5429211,16.5029941 57.3442921,21.060578 C57.1805186,24.8181444 53.2365871,29.2444047 49.7830209,29.989075 C49.6020584,30.027818 49.3986547,29.953351 49.1284047,29.9236648 C50.9031739,27.9648798 51.5444208,25.6367786 51.5420335,23.0686722 C51.5386912,19.4358884 51.5157724,15.8031046 51.5444208,12.1713271 C51.5573126,10.5491532 51.3329001,9.08849237 49.4984467,8.13652188" id="Fill-20" fill="#3C425B"></path>
                        <g id="Group-24" transform="translate(0.000000, 1.666667)">
                            <mask id="mask-4" fill="white">
                                <use xlink:href="#path-3"></use>
                            </mask>
                            <g id="Clip-23"></g>
                            <path d="M12.0399231,19.6328352 C10.072955,22.1973239 7.12275268,23.0170398 4.44483829,21.8889716 C2.38094568,21.0196534 1.91580794,19.2099375 1.86334879,17.244767 C1.78990599,14.453233 1.84036669,11.6586307 1.83786864,8.86505114 C1.83587019,7.13971023 1.83587019,7.13971023 -0.000199844358,6.81550568 C3.04442895,5.28039205 5.32365385,3.02578977 7.80372233,0.275676136 C7.80372233,1.81948295 7.8386951,2.89641477 7.79223128,3.97027841 C7.75775813,4.76851705 8.00806319,5.15050568 8.84740949,5.08914205 C9.51988576,5.04005114 10.1998562,5.11215341 10.8738313,5.07277841 C11.6132554,5.0293125 11.8930375,5.32794886 11.8765504,6.08272159 C11.8620616,6.75209659 11.6232476,6.98578977 10.9597644,7.02874432 C9.9480523,7.0936875 8.55313868,6.50255114 8.02355113,7.37084659 C7.5269379,8.18544886 7.82170833,9.50936932 7.80821883,10.6098239 C7.78773479,12.2436307 7.80272311,13.8779489 7.80322272,15.5112443 C7.80372233,19.2610739 8.30533167,19.7693693 12.0399231,19.6328352" id="Fill-22" fill="#3C425B" mask="url(#mask-4)"></path>
                        </g>
                        <path d="M152.381206,3.7217212 C152.367978,5.35161863 151.062809,6.67215592 149.471032,6.66666667 C147.91698,6.66064252 146.55155,5.26852189 146.552529,3.69068507 C146.55302,2.0707993 147.837611,0.826851173 149.501408,0.833333333 C151.203908,0.840366907 152.394924,2.03575851 152.381206,3.7217212" id="Fill-25" fill="#3C425B"></path>
                        <g id="Group-29" transform="translate(51.626459, 0.000000)">
                            <mask id="mask-6" fill="white">
                                <use xlink:href="#path-5"></use>
                            </mask>
                            <g id="Clip-28"></g>
                            <path d="M3.55241281,0.318752581 C5.35152445,0.313641026 6.61464328,1.49364103 6.65256247,3.21620513 C6.6915065,4.94594872 5.28900904,6.41723077 3.59443137,6.42443908 C1.94187225,6.43210256 0.417930919,4.89876923 0.444576833,3.25517949 C0.470710326,1.60594872 1.82760227,0.324410256 3.55241281,0.318752581" id="Fill-27" fill="#3C425B" mask="url(#mask-6)"></path>
                        </g>
                        <path d="M65.7816717,10.4119111 C65.8094578,12.0160891 64.4853416,13.3412108 62.8625245,13.3333333 C61.309707,13.3259128 60.0048274,12.0788636 59.9545986,10.5548681 C59.9043698,9.03140018 61.3278749,7.49368928 62.7829065,7.5 C64.3533575,7.50687719 65.7549543,8.86787003 65.7816717,10.4119111" id="Fill-30" fill="#3C425B"></path>
                        <path d="M141.523889,18.393279 C141.514079,16.4118029 141.497555,14.4293154 141.531635,12.4478393 C141.550224,11.3630342 141.441788,10.2762062 141.63594,9.36183444 C141.795496,8.60575819 143.765932,9.1195866 144.822408,9.02450811 C144.875593,9.01945075 144.930327,9.02703679 144.982996,9.02147369 C145.158043,9.00073849 145.318631,8.98657787 145.472507,8.97646313 L145.472507,7.21447676 C145.470442,7.20739644 145.46786,7.20233908 145.465278,7.19525876 C145.431198,7.09309997 141.555904,7.27769383 141.485162,5.46715674 C141.448501,4.5522792 141.311148,3.55142643 141.261578,2.5 C138.95499,5.04385519 136.566301,7.25544142 133.229572,8.87835023 C135.363695,9.10795465 135.364211,9.10795465 135.364727,10.8117813 C135.366277,13.6277228 135.342008,16.44417 135.37712,19.2606173 C135.409135,21.8919649 136.56217,23.4577255 138.744315,23.9584047 C141.673118,24.6300229 144.455791,23.646871 145.719844,21.4474224 C145.483867,21.4585486 145.281453,21.4590543 145.081621,21.4792838 C142.413581,21.7493472 141.536282,20.9952939 141.523889,18.393279" id="Fill-34" fill="#3C425B"></path>
                        <path d="M153.033853,19.6196352 C153.027706,15.6481379 153.01352,11.6766405 153.045201,7.70618392 C153.052294,6.80853809 152.94543,6.47601886 151.999262,6.77211189 C150.634151,7.19777814 146.57759,8.16879675 146.005917,8.04026428 L146.005917,8.86609844 C146.872647,9.01232364 147.177634,9.65498602 147.254708,11.2067425 C147.37954,13.7222323 147.359207,16.2476092 147.368664,18.7683027 C147.375757,20.7176252 147.515247,22.7247092 145.719844,24.1666667 L154.879377,24.1666667 C152.972855,22.9692852 153.036217,21.2785888 153.033853,19.6196352" id="Fill-36" fill="#3C425B"></path>
                    </g>
                </g>

                <g id="BORDER-R" transform="translate(1178.500000, 119.500000) scale(-1, 1) translate(-1178.500000, -119.500000) translate(1121.000000, 50.000000)" stroke="#3C425B" stroke-linejoin="round" stroke-width="3">
                    <polyline id="Path-3" stroke-linecap="round" points="114.845577 13.9 40.2509819 13.9 15.3861171 41.7 15.3861171 97.3 40.2509819 125.1 114.845577 125.1"></polyline>
                    <path d="M65.1158468,13.9 L54.4722704,2.00001886 C53.3340205,0.727405954 51.7075006,-5.38281552e-15 50.0001176,0 L30.6756431,0 C28.8681459,3.3203185e-16 27.1569631,0.814834892 26.0176531,2.21805221 L1.34200999,32.609508 C0.473855243,33.6787602 -5.22831412e-14,35.0141421 -5.30026473e-14,36.3914558 L-5.30026473e-14,103.017251 C-6.21361921e-14,104.4073 0.482643821,105.754223 1.36548056,106.827925 L26.0184041,136.810673 C27.1581165,138.196785 28.8584179,139 30.6529235,139 L99.7298474,139 C101.43723,139 103.06375,138.272594 104.202,136.999981 L114.845577,125.1 L114.845577,125.1 L40.2509819,125.1 L15.3861171,97.3 L15.3861171,41.7 L40.2509819,13.9 L65.1158468,13.9 Z" id="Path-6" fill="#3C425B"></path>
                </g>
                <g id="BORDER-L" transform="translate(57.500000, 119.500000) scale(1, -1) translate(-57.500000, -119.500000) translate(0.000000, 50.000000)" stroke="#3C425B" stroke-linejoin="round" stroke-width="3">
                    <polyline id="Path-3" stroke-linecap="round" points="114.845577 13.9 40.2509819 13.9 15.3861171 41.7 15.3861171 97.3 40.2509819 125.1 114.845577 125.1"></polyline>
                    <path d="M65.1158468,13.9 L54.4722704,2.00001886 C53.3340205,0.727405954 51.7075006,-5.38281552e-15 50.0001176,0 L30.6756431,0 C28.8681459,3.3203185e-16 27.1569631,0.814834892 26.0176531,2.21805221 L1.34200999,32.609508 C0.473855243,33.6787602 -5.22831412e-14,35.0141421 -5.30026473e-14,36.3914558 L-5.30026473e-14,103.017251 C-6.21361921e-14,104.4073 0.482643821,105.754223 1.36548056,106.827925 L26.0184041,136.810673 C27.1581165,138.196785 28.8584179,139 30.6529235,139 L99.7298474,139 C101.43723,139 103.06375,138.272594 104.202,136.999981 L114.845577,125.1 L114.845577,125.1 L40.2509819,125.1 L15.3861171,97.3 L15.3861171,41.7 L40.2509819,13.9 L65.1158468,13.9 Z" id="Path-6" fill="#3C425B"></path>
                </g>
                <polygon id="Rectangle" fill="#3C425B" points="245 34.7856983 349.93117 34.7856983 354.29064 31.9572969 373 31.9572969 376.24658 34.7707601 990 34.7856983 990 37.5842232 897.388914 37.5842232 884.181058 43.9572969 839.423612 43.9572969 825.366602 37.5842232 245 37.5842232"></polygon>
            </g>
        </g>
    </g>
</svg>
