<svg viewBox="0 0 48.52 37.72" xmlns="http://www.w3.org/2000/svg" xmlns:xlink="http://www.w3.org/1999/xlink"><clipPath id="a" transform="translate(10.63 11.07)"><path clip-rule="evenodd" d="m0 2.38v10.83a2.59 2.59 0 0 0 .33 1.22 2.17 2.17 0 0 0 3.1.8l8.1-5.37a2.37 2.37 0 0 0 .74-.8 2.53 2.53 0 0 0 -.74-3.33l-8.1-5.37a2.08 2.08 0 0 0 -1.18-.36 2.34 2.34 0 0 0 -2.25 2.38zm14.65.05v10.73a2.64 2.64 0 0 0 .35 1.27 2.18 2.18 0 0 0 3.11.8l8.09-5.37a2.37 2.37 0 0 0 .74-.8 2.53 2.53 0 0 0 -.74-3.33l-8.11-5.37a2.13 2.13 0 0 0 -1.19-.36 2.35 2.35 0 0 0 -2.25 2.43z"/></clipPath><clipPath id="b" transform="translate(10.63 11.07)"><path d="m-247.49-1626.38h1400v2990h-1400z"/></clipPath><clipPath id="c" transform="translate(10.63 11.07)"><path d="m-6.49-6.38h40v29h-40z"/></clipPath><clipPath id="d" transform="translate(10.63 11.07)"><path d="m-5.63-6.07h38.52v27.72h-38.52z"/></clipPath><clipPath id="e" transform="translate(10.63 11.07)"><path d="m-.49-.38h28v16h-28z"/></clipPath><g clip-path="url(#a)"><g clip-path="url(#b)"><g clip-path="url(#c)"><g clip-path="url(#d)"><g clip-path="url(#e)"><path d="m0 0h48.52v37.72h-48.52z" fill="#fff"/></g></g></g></g></g></svg>