<?xml version="1.0" encoding="utf-8"?>
<!-- Generator: Adobe Illustrator 24.1.0, SVG Export Plug-In . SVG Version: 6.00 Build 0)  -->
<svg version="1.1" id="Layer_1" xmlns="http://www.w3.org/2000/svg" xmlns:xlink="http://www.w3.org/1999/xlink" x="0px" y="0px"
	 viewBox="0 0 301 298.8" style="enable-background:new 0 0 301 298.8;" xml:space="preserve">
<style type="text/css">
	.st0{fill-rule:evenodd;clip-rule:evenodd;fill:#FFFFFF;}
</style>
<g>
	<path class="st0" d="M14,62h64l93-62c0,80,0,159,0,239l-93-62H14c-8,0-14-6-14-14V75C0,68,6,62,14,62z M196,144c-8,8,5,21,14,12
		c19-20,18-52-2-71c-9-9-22,5-13,13C208,110,209,131,196,144z M252,197c-8,8,5,21,13,12c49-51,47-131-4-180c-9-8-22,5-13,13
		C292,84,294,153,252,197z M224,170c-8,9,5,22,13,13c34-36,33-92-3-126c-8-8-21,5-12,13C250,97,251,142,224,170z"/>
</g>
</svg>
