<?xml version="1.0" encoding="utf-8"?>
<!-- Generator: Adobe Illustrator 24.1.2, SVG Export Plug-In . SVG Version: 6.00 Build 0)  -->
<svg version="1.1" id="Layer_1" xmlns="http://www.w3.org/2000/svg" xmlns:xlink="http://www.w3.org/1999/xlink" x="0px" y="0px"
	 viewBox="0 0 316.7 139.4" style="enable-background:new 0 0 316.7 139.4;" xml:space="preserve">
<style type="text/css">
	.st0{fill-rule:evenodd;clip-rule:evenodd;fill:#F4DE33;}
	.st1{fill-rule:evenodd;clip-rule:evenodd;fill:#FF51AB;}
</style>
<g>
	<polygon id="Fill-1_1_" class="st0" points="0,2 0,14.8 18.1,14.8 18.1,69.8 31.3,69.8 31.3,14.8 49.4,14.8 49.4,2 	"/>
	<path id="Fill-2_1_" class="st0" d="M109.9,35.2c0-13-9.5-22.2-21.6-22.2s-21.6,9.2-21.6,22.2c0,12.9,9.5,22,21.6,22
		S109.9,48.2,109.9,35.2 M53.5,35.2c0-19.8,15.4-35,34.7-35s34.9,15.3,34.9,35c0,19.6-15.5,35-34.9,35
		C68.9,70.2,53.5,54.8,53.5,35.2"/>
	<g id="Group-6_1_" transform="translate(143.773339, 0.000000)">
		<g id="Clip-5_1_">
		</g>
		<path id="Fill-4_1_" class="st0" d="M159.8,35c0-13-9.5-22.2-21.6-22.2S116.6,22,116.6,35c0,12.9,9.5,22,21.6,22
			S159.8,47.9,159.8,35 M103.3,35c0-19.8,15.4-35,34.7-35s34.9,15.3,34.9,35c0,19.6-15.5,35-34.9,35S103.3,54.7,103.3,35"/>
	</g>
	<polygon id="Fill-7_1_" class="st0" points="169.6,68.9 145.6,37.3 145.6,68.9 132.5,68.9 132.5,1.6 145.6,1.6 145.6,31.2 
		168.6,1.6 183.9,1.6 159,34.2 184.9,68.9 	"/>
	<polygon id="Fill-9_1_" class="st0" points="224.3,42.7 224.3,68.9 211.1,68.9 211.1,42.7 188.2,1.6 203.2,1.6 217.8,29.7 
		232.3,1.6 247.3,1.6 	"/>
	<path id="Fill-11_1_" class="st1" d="M277.2,28.5v13.3c0,0.8,1,1.4,1.7,0.8l9.9-6.9c0.6-0.4,0.6-1.4,0-1.8l-9.9-6.4
		C278.1,27.3,277.2,27.7,277.2,28.5"/>
	<g>
		<path id="Fill-13_1_" class="st1" d="M33.5,109L35,94.2l2.7-5.6c1.9,0.5,2.9,1.6,3.2,3.5l-2,19.8l-1.6,1.5L33.5,109z M15.6,118.2
			h4.3l16.4,18.4c-1.1,1.9-3.1,2.8-5.9,2.8l-15.2-16.9L15.6,118.2z M33.3,111.1l2.5,2.8l-3.1,2.8H14.4l-2.5-2.8l3.1-2.8H33.3z
			 M33.5,94.2H16.7L11.2,92c0.7-1.9,2-3.1,3.9-3.5h21L33.5,94.2z M16.6,95.6l-1.3,13.5l-4.7,4.3l-1.2-1.5l1.9-18.4L16.6,95.6z
			 M14.2,119l-1.5,14.8l-2.7,5.6c-1.9-0.5-2.9-1.6-3.2-3.5l2-19.8l1.6-1.5L14.2,119z"/>
		<path id="Fill-15_1_" class="st1" d="M77.6,111.1l2.5,2.8l-3.1,2.8H58.7l-2.5-2.8l3.1-2.8H77.6z M80,94.2H61L55.5,92
			c0.7-1.9,2-3.1,3.9-3.5h23.1L80,94.2z M60.9,95.6l-1.3,13.5l-4.7,4.3l-1.2-1.5l1.9-18.4L60.9,95.6z M51.3,134.5l1.8-18.5l1.6-1.5
			l3.7,4.3l-1.3,13.5L51.3,134.5z M77.6,139.4H54.3c-1.9-0.5-2.9-1.6-3.2-3.5l5.9-2.1h19L77.6,139.4z"/>
		<path id="Fill-17_1_" class="st1" d="M119.2,109l1.5-14.8l2.7-5.6c1.9,0.5,2.9,1.6,3.2,3.5l-2,19.8l-1.6,1.5L119.2,109z
			 M122.9,114.7l1.2,1.5l-2,19.6c-0.7,1.9-2,3.1-3.9,3.5l-1.6-5.6l1.5-14.8L122.9,114.7z M119.1,111.1l2.5,2.8l-3.1,2.8h-18.4
			l-2.5-2.8l3.1-2.8H119.1z M119.3,94.2h-16.8L97,92.1c0.7-1.9,2-3.1,3.9-3.5h21L119.3,94.2z M102.3,95.6l-1.3,13.5l-4.7,4.3
			l-1.2-1.5L97,93.5L102.3,95.6z M100,119l-1.5,14.8l-2.7,5.6c-1.9-0.5-2.9-1.6-3.2-3.5l2-19.8l1.6-1.5L100,119z"/>
		<path id="Fill-19_1_" class="st1" d="M144.2,133.8H161l5.5,2.1c-0.7,1.9-2,3.1-3.9,3.5h-21.1L144.2,133.8z M140.6,113.2l-1.2-1.5
			l2-19.8c0.7-1.9,2-3.1,3.9-3.5l1.6,5.6l-1.5,14.8L140.6,113.2z M144.3,119l-1.5,14.8l-2.7,5.6c-1.9-0.5-2.9-1.6-3.2-3.5l2-19.8
			l1.6-1.5L144.3,119z"/>
		<path id="Fill-21_1_" class="st1" d="M180.2,110.4l1.5-14.8h5.6l-1.5,14.8l-3.1,2.8L180.2,110.4z M182.6,114.7l2.5,2.8l-1.9,18.4
			c-0.7,1.9-2,3.1-3.9,3.5l-1.6-5.6l1.6-16.3L182.6,114.7z M175.5,94.2l-5.5-2.1c0.7-1.9,2-3.1,3.9-3.5h22.4
			c1.9,0.5,2.9,1.6,3.2,3.5l-5.9,2.1H175.5z"/>
		<path id="Fill-23_1_" class="st1" d="M212.6,109l1.5-14.8l2.7-5.6c1.9,0.5,2.9,1.6,3.2,3.5l-2,19.8l-1.6,1.5L212.6,109z
			 M216.4,113.9l1.2,1.5l-2,19.8c-0.7,1.9-2,3.1-3.9,3.5l-1.6-5.7l1.5-14.8L216.4,113.9z"/>
		<path id="Fill-25_1_" class="st1" d="M256.9,109l1.5-14.8l2.7-5.6c1.9,0.5,2.9,1.6,3.2,3.5l-2,19.8l-1.6,1.5L256.9,109z
			 M260.5,114.7l1.2,1.5l-1.9,19.6c-0.7,1.9-2,3.1-3.9,3.5l-1.6-5.6l1.5-14.8L260.5,114.7z M250.3,111.9l-3.1,2.8l-2.5-2.8l1.6-16.3
			h5.6L250.3,111.9z M256.9,94.2h-16.7l-5.5-2.1c0.7-1.9,2-3.1,3.9-3.5h21L256.9,94.2z M240,95.6l-1.3,13.5l-4.7,4.3l-1.2-1.5
			l1.9-18.4L240,95.6z M237.7,119l-1.5,14.8l-2.7,5.6c-1.9-0.5-2.9-1.6-3.2-3.5l2-19.8l1.6-1.5L237.7,119z"/>
		<path id="Fill-27_1_" class="st1" d="M301,111.1l2.5,2.8l-3.1,2.8h-18.3l-2.5-2.8l3.1-2.8H301z M303.4,94.2h-19l-5.5-2.1
			c0.7-1.9,2-3.1,3.9-3.5h23.1L303.4,94.2z M284.3,95.6l-1.3,13.5l-4.7,4.3l-1.3-1.5l1.9-18.4L284.3,95.6z M274.8,134.5l1.9-18.4
			l1.6-1.5l3.7,4.3l-1.3,13.5L274.8,134.5z M301,139.4h-23.2c-1.9-0.5-2.9-1.6-3.2-3.5l5.9-2.1h19L301,139.4z"/>
	</g>
</g>
</svg>
