<?xml version="1.0" encoding="UTF-8"?>
<svg width="1244px" height="467px" viewBox="0 0 1244 467" version="1.1" xmlns="http://www.w3.org/2000/svg" xmlns:xlink="http://www.w3.org/1999/xlink">
    <!-- Generator: Sketch 61 (89581) - https://sketch.com -->
    <title>Group 3</title>
    <desc>Created with Sketch.</desc>
    <g id="Page-1" stroke="none" stroke-width="1" fill="none" fill-rule="evenodd">
        <g id="Tokyo-Realtime-Galery-V2-Copy" transform="translate(-78.000000, -1764.000000)" stroke="#F4DE33" stroke-width="3">
            <g id="GALLERY" transform="translate(80.000000, 1764.000000)">
                <g id="Group-2">
                    <g id="Group-3">
                        <path d="M349.5,111.866282 L349.5,-63.9298766 L307.598504,-50.1969169 C305.749968,-49.5910702 304.5,-47.8660121 304.5,-45.9207258 L304.5,92.5144754 C304.5,94.4124379 305.690819,96.1063527 307.476736,96.748819 L349.5,111.866282 Z" id="Rectangle-Copy-11" fill="#F4DE33" transform="translate(327.000000, 24.000000) scale(1, -1) rotate(-90.000000) translate(-327.000000, -24.000000) "></path>
                        <path d="M6,48 L1234,48 C1237.31371,48 1240,50.6862915 1240,54 L1240,360.674272 C1240,362.629757 1239.04706,364.46256 1237.44633,365.585768 L1097.31863,463.911497 C1096.30904,464.619918 1095.10565,465 1093.8723,465 L6,465 C2.6862915,465 3.04208598e-14,462.313708 0,459 L0,54 C-4.05812251e-16,50.6862915 2.6862915,48 6,48 Z" id="FRAME" fill="#222946"></path>
                    </g>
                </g>
            </g>
        </g>
    </g>
</svg>