<?xml version="1.0" encoding="UTF-8"?>
<svg width="1305px" height="624px" viewBox="0 0 1305 624" version="1.1" xmlns="http://www.w3.org/2000/svg" xmlns:xlink="http://www.w3.org/1999/xlink">
    <!-- Generator: Sketch 61 (89581) - https://sketch.com -->
    <title>Group 5</title>
    <desc>Created with Sketch.</desc>
    <g id="Page-1" stroke="none" stroke-width="1" fill="none" fill-rule="evenodd">
        <g id="Tokyo-Realtime-Credits-V2-(YELLOW-THEME)" transform="translate(-58.000000, -18.000000)" stroke="#F4DE33" stroke-width="3">
            <g id="HERO" transform="translate(22.796353, -125.000000)">
                <g id="HERO-BORDERS" transform="translate(37.203647, 145.000000)">
                    <g id="Group-5">
                        <polyline id="Path-2" points="20.0153846 620 21.0161538 339 0 320 0 220 21.0161538 198.61663 280.215385 199.059515 280.215385 120 360.276923 2.28012054e-13 940.895232 2.28012054e-13 961.853943 14.1519785 980.922511 0 1259.96846 2.28012054e-13 1301 40 1301 179.317655 1280.98462 200 1280.98462 340 1301 360 1301 580 1260.96923 620 1020.78462 620 660.507692 620"></polyline>
                        <polygon id="Path-5" fill="#F4DE33" stroke-linejoin="round" points="294.75404 120 369.152544 9.12126434 520 9.12126434 540 -1.80109416e-15 360 0 280 120"></polygon>
                        <path d="M1.545996,219.99439 L18.7085308,200.97982 C19.8461891,199.719395 21.4646135,199 23.1625348,199 L388,199 C391.313708,199 394,201.686292 394,205 L394,279.769272 C394,280.907297 393.676352,282.021855 393.066824,282.982883 L373.563951,313.732602 C372.463493,315.467667 370.551746,316.518991 368.497127,316.518991 L68.7092994,316.518991 C66.8384773,316.518991 65.0747198,317.391632 63.9396984,318.878811 L50.3841484,336.640179 C49.249127,338.127359 47.4853695,339 45.6145473,339 L20.4955145,339 L20.4955145,339 L0,320.385173 L0,224.01457 C1.4028968e-14,222.529353 0.550855627,221.096918 1.545996,219.99439 Z" id="Path-4" fill="#F4DE33"></path>
                    </g>
                </g>
            </g>
        </g>
    </g>
</svg>