<svg id="Layer_1" data-name="Layer 1" xmlns="http://www.w3.org/2000/svg" viewBox="0 0 1243 143.77"><defs><style>.cls-1{fill:#222946;}.cls-2{fill:#f4de33;}</style></defs><path class="cls-1" d="M7.5,140.77H1095.37A4.51,4.51,0,0,0,1098,140l140.12-98.33A4.51,4.51,0,0,0,1240,38V0H3V136.27A4.51,4.51,0,0,0,7.5,140.77Z"/><path class="cls-2" d="M7.5,143.77H1095.37a7.47,7.47,0,0,0,4.31-1.36l140.13-98.32A7.52,7.52,0,0,0,1243,38V0h-3V38a4.51,4.51,0,0,1-1.92,3.68L1098,140a4.51,4.51,0,0,1-2.59.81H7.5a4.51,4.51,0,0,1-4.5-4.5V0H0V136.27A7.5,7.5,0,0,0,7.5,143.77Z"/></svg>