<?xml version="1.0" encoding="UTF-8"?>
<svg width="119px" height="143px" viewBox="0 0 119 143" version="1.1" xmlns="http://www.w3.org/2000/svg" xmlns:xlink="http://www.w3.org/1999/xlink">
    <!-- Generator: Sketch 61 (89581) - https://sketch.com -->
    <title>BORDER R</title>
    <desc>Created with Sketch.</desc>
    <g id="Page-1" stroke="none" stroke-width="1" fill="none" fill-rule="evenodd" stroke-linejoin="round">
        <g id="Tokyo-Realtime-Credits-V2" transform="translate(-529.000000, -736.000000)" stroke="#3C425B" stroke-width="3">
            <g id="WRE" transform="translate(80.000000, 734.000000)">
                <g id="BORDER-R" transform="translate(508.500000, 73.500000) scale(-1, 1) translate(-508.500000, -73.500000) translate(451.000000, 4.000000)">
                    <polyline id="Path-3" stroke-linecap="round" points="114.845577 13.9 40.2509819 13.9 15.3861171 41.7 15.3861171 97.3 40.2509819 125.1 114.845577 125.1"></polyline>
                    <path d="M65.1158468,13.9 L54.4722704,2.00001886 C53.3340205,0.727405954 51.7075006,-5.38281552e-15 50.0001176,0 L30.6756431,0 C28.8681459,3.3203185e-16 27.1569631,0.814834892 26.0176531,2.21805221 L1.34200999,32.609508 C0.473855243,33.6787602 -5.22831412e-14,35.0141421 -5.30026473e-14,36.3914558 L-5.30026473e-14,103.017251 C-6.21361921e-14,104.4073 0.482643821,105.754223 1.36548056,106.827925 L26.0184041,136.810673 C27.1581165,138.196785 28.8584179,139 30.6529235,139 L99.7298474,139 C101.43723,139 103.06375,138.272594 104.202,136.999981 L114.845577,125.1 L114.845577,125.1 L40.2509819,125.1 L15.3861171,97.3 L15.3861171,41.7 L40.2509819,13.9 L65.1158468,13.9 Z" id="Path-6" fill="#3C425B"></path>
                </g>
            </g>
        </g>
    </g>
</svg>