<svg xmlns="http://www.w3.org/2000/svg" xmlns:xlink="http://www.w3.org/1999/xlink" width="316" height="71" viewBox="0 0 316 71">
    <defs>
        <path id="prefix__a" d="M0.023 0.033L4.154 0.033 4.154 5.552 0.023 5.552z"/>
        <path id="prefix__c" d="M0 0.088L3.89 0.088 3.89 7.11 0 7.11z"/>
        <path id="prefix__e" d="M0.144 0.101L2.149 0.101 2.149 2.041 0.144 2.041z"/>
    </defs>
    <g fill="none" fill-rule="evenodd">
        <g>
            <g fill="#3C425B" fill-rule="nonzero">
                <path d="M10.563 19.612L8.941 18.553 8.905 18.529 8.905 18.572 8.905 20.841 8.905 20.877 8.939 20.862 10.513 20.221 11.995 21.415 12.026 21.441 12.033 21.401 12.406 18.715 12.413 18.671 12.372 18.692zM12.533 19.649L12.531 19.649 12.516 19.653 12.514 19.671 12.418 20.346 12.413 20.382 12.447 20.373 16.392 19.212 16.41 19.21 16.41 19.192 16.458 18.564 16.461 18.529 16.427 18.539z" transform="translate(2 44) translate(144.815)"/>
                <path d="M17.826 7.296c1.116-3.671.698-4.772.79-7.296-6.05 4.497-4.094 9.82-4.42 9.728-2.839-3.9-5.63-7.25-9.865-8.994 0-.413-.699 6.011 8.189 9.085-6.236.78-5.77 4.635-5.77 4.635.14 2.019 3.723 2.89 3.723 2.89-.698 1.01-.047 2.066 0 1.974.605-.321 1.722-.872 2.42-1.239l-.186 1.056 3.723-1.193c.465-2.065 1.489-5.782-.698-7.342 0-.092 1.07-.643 2.094-3.304zm-7.865 6.057c-.465 0-.837-.367-.837-.826 0-.459.372-.872.837-.872.465 0 .884.413.884.872 0 .458-.418.826-.884.826zM11.392 24.249h.078c.029 0 .053 0 .077.005.02.005.034.024.034.048 0 .005 0 .015-.005.02 0 .005 0 .015-.005.02v.009c0 .005-.004.005-.004.01-.005.004-.005.014-.005.02-.005.004-.005.009-.005.009l-.267.437h-.03l-.242-.32c-.039-.049-.049-.098-.058-.127-.015-.029-.02-.053-.02-.078 0-.024.01-.039.03-.043.014-.01.038-.01.063-.01h.077v-.69H9.445v.69h.044c.087 0 .15.014.189.048.039.034.078.078.107.136l.01.025.014.02.325.514.471.72.005.408v.034c0 .073-.014.117-.039.136-.029.015-.053.025-.082.025h-.223V27h1.718v-.685h-.223c-.024 0-.049-.01-.073-.025-.02-.01-.03-.053-.03-.12v-.473l.564-1.045c.024-.048.034-.102.054-.14.014-.044.029-.079.043-.107.024-.054.054-.098.088-.122.029-.024.082-.034.145-.034h.131v-.69h-1.291v.69zM14.894 26.159c-.045.044-.095.073-.151.082-.03.005-.055.01-.08.01h-.297v-.646h.276c.096 0 .177.029.237.087.055.054.085.141.085.253 0 .097-.02.17-.07.214m-.528-1.852h.13c.121 0 .227.015.307.044.086.034.131.117.131.253 0 .078-.025.15-.07.219-.05.063-.136.092-.267.092h-.231v-.608zm1.01.914h-.06v-.044h.026c.186 0 .357-.068.508-.199.155-.131.23-.31.23-.549 0-.355-.146-.678-.382-.788-.244-.114-.498-.076-.794-.077-.07-.004-.136-.004-.206-.004h-1.745v.69h.156c.05 0 .09.004.12.024.036.014.05.073.05.17v1.671c0 .097-.014.156-.05.175-.03.015-.07.024-.12.024-.005 0-.01-.005-.01-.005l-.146.005V27h1.373s.918.008 1.276-.026c.383-.037.59-.44.59-.907 0-.218-.071-.417-.202-.588-.13-.17-.337-.257-.613-.257M18.194 25.317c0 .245-.024.45-.071.614-.048.165-.153.245-.315.245s-.267-.08-.315-.245c-.047-.165-.066-.37-.066-.614v-.325c0-.35.028-.574.085-.679.057-.105.124-.17.196-.185.019-.005.033-.005.052-.005h.1c.015 0 .034 0 .048.005.072.015.138.08.196.185.062.105.09.33.09.679v.324zm1.145-.819c-.029-.095-.062-.19-.105-.285-.043-.095-.095-.185-.157-.27-.077-.115-.158-.204-.249-.28-.085-.074-.176-.14-.266-.19-.144-.074-.282-.124-.416-.144-.138-.025-.247-.035-.338-.035-.09 0-.205.01-.339.035-.138.025-.276.075-.424.15-.086.055-.171.115-.262.19-.086.074-.167.164-.244.274-.062.085-.114.175-.152.27-.043.095-.081.19-.11.285-.033.115-.057.225-.067.334-.014.115-.019.22-.019.32 0 .09.005.21.02.355.018.15.052.3.104.46.024.07.053.139.086.209.034.075.072.145.12.21.138.2.314.35.529.45.214.094.434.154.663.164h.19c.23-.01.449-.07.663-.165.215-.1.392-.25.53-.45.047-.064.085-.134.119-.209.033-.07.062-.14.085-.21.053-.16.091-.31.106-.46.014-.144.024-.264.024-.354 0-.1-.01-.205-.02-.32-.014-.11-.038-.22-.071-.334M21.653 23.559v.69h.073c.029 0 .053 0 .077.005.025.005.034.024.034.049v.019c-.005.005-.005.015-.005.02 0 .004-.004.004-.004.01 0 .004 0 .004-.005.009 0 .005-.005.014-.005.02 0 .004-.005.009-.005.009l-.262.423h-.029l-.247-.306c-.039-.049-.048-.097-.058-.127-.015-.029-.02-.053-.02-.077 0-.025.01-.04.03-.044.019-.01.038-.01.062-.01h.083v-.69h-1.673v.69h.05c.086 0 .149.015.188.048.039.035.073.078.102.137.004.01.01.014.01.024l.014.02.804 1.224v.452c0 .073-.014.117-.038.136-.024.015-.053.025-.083.025h-.218V27h1.712v-.685h-.219c-.029 0-.053-.01-.072-.025-.025-.01-.034-.053-.034-.121v-.5l.562-1.017c.024-.048.04-.101.054-.14.014-.044.029-.078.043-.107.024-.054.053-.098.087-.122.034-.024.083-.034.146-.034h.13v-.69h-1.284zM7.84 25.352h-.29l.285-.904h.039l.252.904h-.287zm1.637.909c-.034-.034-.062-.097-.092-.185-.004-.01-.004-.02-.01-.029 0-.01-.004-.02-.004-.029l-.698-2.46H7.355l-.271.92-.456 1.452c-.005.015-.01.03-.019.05l-.015.048c-.019.053-.048.102-.082.15l-.03.044c-.048.059-.115.093-.203.093h-.072V27h1.27v-.685h-.05c-.048 0-.077-.005-.096-.01-.02-.005-.034-.01-.039-.02-.01-.01-.014-.024-.014-.038 0-.02.004-.04.01-.059l.019-.063h1.041l.02.112c0 .005 0 .01.005.01v.01c0 .028-.01.043-.034.048-.025.005-.049.01-.078.01h-.14V27h1.594v-.685h-.073c-.072 0-.126-.02-.165-.054M1.75 24.905c-.047.054-.094.093-.152.112-.033.005-.071.015-.104.02-.034 0-.057.004-.081.004h-.071v-.738h.1c.137 0 .237.034.294.107.058.068.086.15.086.247 0 .112-.024.195-.071.248m.775-1.113c-.295-.136-.618-.214-.975-.228-.048-.005-.095-.005-.143-.005H0v.69h.138c.071 0 .114.01.138.034.024.024.038.078.038.16v1.673c0 .082-.014.136-.038.16-.024.024-.067.039-.138.039L0 26.31V27h1.708v-.686h-.19c-.076 0-.124-.019-.143-.048-.024-.03-.033-.078-.033-.15v-.326h.361c.38 0 .661-.068.842-.21.176-.136.295-.291.357-.456.024-.073.043-.146.052-.214.01-.068.014-.132.014-.19 0-.48-.147-.787-.442-.929M5.425 25.829l-.014.082c-.029.131-.062.21-.105.238-.038.03-.118.044-.242.044h-.488v-1.76c0-.082.01-.136.033-.155.019-.02.057-.029.119-.029h.175v-.69H3.238v.69h.143c.085 0 .132.02.151.053.015.044.02.092.02.141v1.672c0 .05-.005.098-.024.146-.015.034-.062.054-.147.054l-.143-.005V27h2.675l.024-1.269h-.498l-.014.098" transform="translate(2 44) translate(144.815)"/>
            </g>
            <path fill="#3C425B" fill-rule="nonzero" d="M109.256 9.535c-1.07.075-1.977.96-1.977 2.206v5.933c0 .215-.162.4-.399.4h-1.887c-4.084.004-3.722-5.122-.244-5.129h2.086v-1.49h-2.162c-1.385 0-2.412.507-3.105 1.264-.693.757-1.042 1.777-1.043 2.793-.002 1.017.341 2.03 1.05 2.787.71.755 1.782 1.264 3.251 1.264h3.559c.235 0 .429-.199.429-.43v-7.235c-.002-.372.212-.661.49-.745.28-.085.606.022.798.294l.008.008c1.012 1.625 5.03 7.955 5.037 7.967.11.154.241.18.337.15.095-.031.193-.133.191-.384v-7.29c-.002-.372.212-.661.49-.746.28-.084.598.023.791.294v.008h.015c1.012 1.626 5.03 7.956 5.037 7.967.108.153.236.183.337.151.1-.031.2-.127.199-.377V9.573h-1.526v5.616s-.91-1.527-2.468-4.156c-1.527-2.575-4.409-1.51-4.409.708v3.448s-.894-1.527-2.454-4.156c-.667-1.126-1.598-1.557-2.43-1.498zm-4.316.038c-8.492 0-8.41 11.883.115 11.89h3.335c1.433 0 2.348-.834 2.347-2.372v-3.013l2.607 4.231c1.248 2.025 4.263 1.626 4.255-.903v-3.328s1.866 3.04 2.6 4.231c1.247 2.025 4.27 1.626 4.263-.903V9.572h-1.526v9.622c.002.37-.196.643-.468.73-.272.088-.585-.022-.775-.286h-.008v-.014s-4.02-6.313-5.045-7.96c-.003-.002-.005.004-.008 0-.002 0 .002-.007 0-.007-.105-.139-.242-.169-.353-.135-.115.035-.224.132-.222.377v7.287c.002.368-.191.657-.46.746-.269.09-.578-.028-.766-.294v-.008h-.008s-4.023-6.325-5.045-7.967c-.107-.15-.245-.186-.36-.15-.115.034-.223.131-.222.376v7.244c0 .438-.367.806-.813.806h-3.558c-1.562 0-2.746-.552-3.528-1.385-.782-.834-1.168-1.94-1.166-3.043.002-1.102.387-2.215 1.15-3.049.763-.834 1.908-1.384 3.388-1.385h2.163V9.57h-1.894l.002.002z" transform="translate(2 44)"/>
            <g fill-rule="nonzero">
                <path fill="#191F35" d="M51.924.265h-3.01l-1.22.908.21-.927h-2.979l-.48.424c-.122-.07-.37-.213-.498-.297-.19-.105-.611-.108-.659-.108h-4.626l-.633.489c-.161-.146-.569-.473-1.077-.58-.918-.215-1.157-.176-1.454-.162-.09.005-.183.01-.29.01-.653 0-1.358.22-1.68.335l.013-.111-3.017.02-1.27 1.008L29.22.265h-2.942l-.664.488.186-.488h-2.636l-1.068.762-.033-.762h-2.638l-.833.616-.066-.635H11.41l-.072.038.02-.039-2.695.02-.846.61L7.7.247H4.866L2.54 2.093 0 11.361h2.508l1.312-.96.138.96H6.4l.354-.297.104.01.173.287h4.84l1.071-.779-.127.779h2.434l1.485-1.032-.248 1.032h2.484l2.488-1.857 2.976-6.053.463 3.927-1.13 3.983h2.736l1.789-1.363c.173.338.707 1.216 1.645 1.36.307.058.807.077.829.077h.004c.38 0 .613-.003 1.003-.077.458-.086.708-.192 1.124-.368l.032-.013c.418-.178.947-.499 1.244-.687l-.22 1.07h2.591l.99-.676-.17.676h5.45l1.187-.85.28.85h3.01l2.37-1.886-1.08-5.02 3.341-4.19v.001z" transform="translate(2 44) translate(.08 10.165)"/>
                <path fill="#191F35" d="M71.572.24l-.52.347c-.13-.077-.427-.249-.657-.338-.61-.24-1.016-.256-1.66-.247-.782.011-1.322.09-2.105.49-.347.177-.767.515-.962.679-.13-.214-.424-.643-.762-.792-.78-.347-1.277-.347-2.086-.322-.744.023-1.176.11-1.846.376-.466.184-1.052.58-1.29.747-.091-.156-.265-.438-.401-.583-.192-.248-.698-.344-.755-.354L53.809.24l-2.19 1.682-2.655 9.22h2.7l2.416-1.79.326-.967c.15.003.473.004.71-.02.173-.018.398-.062.549-.094-.056.35-.148 1.167.117 1.67.496.942 1.38 1.133 2.259 1.2.202.017.382.025.55.025.6 0 1.047-.107 1.663-.306.624-.201 1.423-.702 1.69-.875.147.18.515.597.86.792.49.278.85.312 1.396.364.195.018.37.027.533.027.568 0 1.031-.104 1.709-.385.65-.265 1.618-.864 2.071-1.154l-.38 1.44h2.562l2.38-1.756 1.636-5.536 1.96-1.619.542-1.918h-5.641z" transform="translate(2 44) translate(.08 10.165)"/>
                <path fill="#3C425B" d="M10.863.623h-1.85l-1.2 3.93-.437-3.93H5.013l-2.31 8.52-.013.047h1.813l1.351-4.598.511 4.598H8.39L10.85.67M23.39.623L21.36 4.689l.396-4.025.004-.04H19.73l-1.916 3.98.393-3.94.004-.041H11.54l-2.347 8.52-.013.047h4.565L14.3 7.62h-2.531l.582-2.02h2.3l.477-1.572h-2.339l.58-1.796h2.46L15.34 9.15l-.003.04h2.064l2.18-4.611-.472 4.611h1.99L25.26.677l.026-.054m11.728 4.384l.02.003.617-2.142h-.01c.007-.04.025-.108.043-.174.085-.33.244-.943.161-1.256C37.658.572 37.048.41 36.797.38c-.575-.106-.729-.108-1.14-.112h-.13c-.289-.004-.474-.006-.78.038-.46.065-.718.124-1.124.321-.27.13-.416.224-.65.416-.427.354-.858 1.101-.88 1.142l-1.51 5.501c-.005.03-.145.72.082 1.075.123.194.253.273.434.382l.068.042c.384.236.667.275 1.097.335l.05.007c.205.028.378.042.545.042.251 0 .487-.03.787-.08.413-.068.666-.115 1.066-.302.313-.146.484-.257.763-.492.319-.269.734-.817.766-.916.211-.747.764-2.698.79-2.763l-.016-.008zM44.315 1.4c-.046-.176-.098-.275-.215-.408-.122-.138-.22-.193-.37-.27-.086-.045-.225-.094-.231-.096L38.817.623l-2.347 8.52-.013.047h2.115l1.018-3.442h.87c.072.013.268.069.313.166.031.066.009.193-.002.236l-.793 2.993-.012.047h2.228l.913-3.206c.006-.019.14-.448-.004-.668-.072-.108-.144-.153-.243-.215l-.033-.02c-.076-.048-.184-.093-.26-.122.113-.05.312-.143.448-.227l.058-.035c.137-.083.236-.142.364-.27.082-.08.187-.222.192-.228l.686-2.298c.003-.013.05-.313 0-.502m13.916 4.334c.107-.141.155-.256.21-.39.022-.054.046-.113.077-.177.504-1.082.867-2.946.87-2.96.003-.016.115-.37.037-.6-.014-.058-.018-.111-.022-.163-.006-.08-.012-.162-.055-.256-.072-.155-.151-.227-.274-.33-.093-.08-.167-.114-.253-.154-.044-.02-.092-.044-.15-.075l-.008-.005H54.19l-2.403 8.52-.013.047h2.077l.792-2.58c.139.006.742.032 1.255.032.343 0 .58-.011.705-.034.329-.057.542-.129.848-.288.33-.17.547-.283.779-.586m7.118-4.166l-.03-.131c-.043-.21-.085-.41-.273-.511-.228-.15-.409-.27-.702-.376-.383-.137-.636-.15-1.02-.168L63.276.38C63.14.373 63.03.37 62.93.37c-.274 0-.507.024-.832.085-.34.065-.535.113-.856.246-.384.159-.613.278-.953.567-.242.205-.54.588-.553.604l-1.686 5.78c-.003.03-.069.747.176 1.11.147.22.288.308.502.44.352.22.624.256 1.001.305.047.006.095.012.145.02.241.032.43.047.611.047.212 0 .42-.02.72-.067.438-.069.686-.12 1.068-.302.323-.154.502-.274.763-.511.308-.28.66-.817.689-.915.221-.73.8-2.641.828-2.707l-.018-.009.02.003.656-2.292h-.01c.006-.028.017-.07.029-.113.07-.26.202-.745.118-1.092" transform="translate(2 44) translate(.08 10.165)"/>
                <path fill="#191F35" d="M62.848 2.309c-.044-.094-.23-.144-.377-.17-.048-.007-.094-.012-.14-.012-.189 0-.339.072-.515.165-.15.08-.291.414-.3.433l-1.23 4.476c-.005.021-.109.534.18.676.132.053.278.101.445.101.032 0 .065-.002.098-.005.156-.02.284-.09.387-.146l.048-.026c.154-.088.211-.264.245-.37l.019-.055h.001c.037 0 .05 0 1.054-3.886l.156-.663c.004-.01.112-.247-.071-.518" transform="translate(2 44) translate(.08 10.165)"/>
                <path fill="#3C425B" d="M28.975 3.7L28.792.8h-2.156l.684 4.964-.955 3.461h2.08l.988-3.332L32.98.8h-2.13m15.772 2.656L47.387.8h-2.193l-2.538 8.378-.015.047h2.288l1.115-3.579.67 3.55.006.03h2.4l-.987-4.665L51.143.86l.049-.06h-2.097M71.78.8l-.417 1.51h1.34l-1.988 6.87-.013.046h2.061l2.002-6.844H76.2l.46-1.535.015-.047m-7.006 4.358c-.146-.214-.278-.341-.43-.489-.067-.064-.138-.133-.216-.214-.117-.124-.22-.22-.316-.311-.13-.123-.252-.238-.4-.406-.054-.061-.105-.111-.154-.16-.109-.107-.202-.2-.275-.366-.088-.202-.146-.335-.11-.548.022-.129.039-.206.123-.293.063-.066.125-.082.216-.106l.05-.012c.122-.034.189-.05.305-.036.136.016.216.056.318.155.083.08.117.138.142.24.02.086.01.148-.004.226-.006.034-.012.07-.016.111l-.002.012c-.013.135-.021.216-.053.351-.032.129-.112.324-.112.326l-.021.05h2.085l.008-.026c.002-.005.138-.473.208-.774.02-.086.042-.16.062-.23.048-.164.089-.306.09-.514v-.026c.004-.314.006-.541-.175-.822-.128-.198-.246-.292-.446-.416-.2-.125-.344-.162-.561-.217L69.95.653c-.237-.06-.386-.07-.612-.087L69.18.554c-.16-.012-.286-.022-.42-.022-.127 0-.251.009-.391.028-.125.018-.215.041-.31.066-.056.015-.114.03-.184.046-.084.018-.156.03-.226.04-.121.019-.236.037-.383.09-.235.085-.368.175-.552.3l-.08.054c-.205.138-.32.221-.496.39l-.047.045c-.135.13-.233.224-.337.405-.09.157-.122.268-.167.42l-.025.084c-.058.194-.087.296-.114.484l-.01.073c-.03.193-.05.332-.008.546.03.157.074.249.136.376l.036.074c.125.263.257.422.41.606.062.076.127.154.198.247.178.233.28.365.473.59.091.105.168.185.242.262.08.083.156.162.25.272l.091.104c.07.077.125.138.188.24l.016.027c.086.14.138.224.168.385.033.174.03.278-.018.443-.038.136-.065.218-.16.315-.116.118-.215.166-.394.192-.058.008-.106.012-.15.012-.104 0-.194-.024-.299-.082-.118-.064-.175-.107-.23-.206-.054-.095-.053-.168-.053-.277v-.037c0-.096.02-.16.043-.242.01-.035.022-.074.032-.117.032-.135.094-.346.094-.348l.014-.047h-2.153l-.01.023c-.003.007-.076.18-.113.297-.045.137-.064.231-.088.35l-.027.132c-.018.084-.038.157-.056.225-.044.16-.081.298-.077.5.005.24.027.396.135.64.083.185.15.3.311.453.136.13.246.181.398.253l.065.03c.315.15.52.19.88.243.171.024.32.036.469.036.17 0 .332-.015.56-.036.445-.043.7-.079 1.104-.223.3-.108.47-.191.762-.372.265-.164.425-.268.65-.502.225-.235.337-.397.478-.69.156-.323.203-.52.25-.839.06-.42.087-.658-.02-1.045-.084-.297-.188-.45-.365-.71" transform="translate(2 44) translate(.08 10.165)"/>
                <path fill="#191F35" d="M35.506 2.03c-.111-.125-.234-.147-.384-.163-.138-.015-.219.005-.354.038-.125.03-.193.054-.296.118-.088.055-.193.172-.198.177l-1.41 4.812c-.004.01-.078.256-.019.403.052.13.132.19.246.247.071.035.138.05.222.05.034 0 .069-.002.106-.004.022-.002.045-.004.079-.005.178-.008.307-.014.465-.12.114-.075.172-.138.24-.258.019-.034.025-.084.031-.128l.007-.041h.004c.04 0 .053 0 1.137-3.94l.168-.673c.004-.008.087-.198.06-.326-.019-.085-.055-.131-.104-.187m6.455.34l-.007-.063c-.006-.073-.012-.143-.08-.204-.06-.053-.111-.07-.19-.085-.056-.01-.177-.001-.178 0h-.843l-.634 2.029-.015.048h1.14l.007-.003c.007-.003.183-.075.276-.157.11-.098.149-.195.194-.307l.043-.103c.08-.176.109-.296.15-.461l.023-.093c.016-.064.036-.121.054-.176.046-.136.086-.253.06-.424M57.064 2.226l-.051-.022c-.108-.051-.253-.077-.43-.077-.296 0-.58.071-.592.074l-.02.006-.81 2.684-.009.028.026.014c.005.003.13.07.22.095.065.017.122.025.192.025l.093-.003.071-.002.038-.001c.147-.004.244-.006.394-.056.22-.073.35-.167.497-.36.083-.109.113-.2.147-.304.014-.044.03-.09.05-.142.158-.4.325-1.057.326-1.061.003-.01.071-.226.078-.375.002-.036.006-.07.01-.104.014-.105.027-.204-.057-.303-.054-.065-.109-.088-.173-.116z" transform="translate(2 44) translate(.08 10.165)"/>
            </g>
            <g fill="#3C425B" fill-rule="nonzero">
                <path d="M18.192 5.953c0 1-1.275.942-1.275.942H15.64v-1.81h1.276c1.313-.007 1.275.868 1.275.868m-2.55-3.625h.971c1.01.052.972.786.972.786 0 .911-1.116.926-1.116.926h-.828V2.328zm2.315 2.068s.873-.363.865-1.327c0 0 .133-1.579-2.01-1.772h-2.378v6.62h2.726s2.277.008 2.277-1.868c0 0 .053-1.275-1.48-1.653M11.804 0h10.01v9.212h-10.01V0zM6.56 5.953c0 1-1.276.942-1.276.942H4.008v-1.81h1.276c1.313-.007 1.275.868 1.275.868M4.01 2.328h.971c1.01.052.972.786.972.786 0 .911-1.116.926-1.116.926h-.828V2.328zm2.315 2.068s.873-.363.865-1.327c0 0 .133-1.579-2.01-1.772H2.801v6.62h2.726s2.277.008 2.277-1.868c0 0 .053-1.275-1.48-1.653M.17 0h10.01v9.212H.17V0zM31.134 1.772v1.223s-1.222-.734-2.574-.749c0 0-2.52-.048-2.634 2.36 0 0-.091 2.215 2.604 2.34 0 0 1.131.134 2.665-.822V7.39s-2.058 1.194-4.442.275c0 0-2.004-.716-2.08-3.06 0 0-.083-2.411 2.589-3.212 0 0 .714-.267 1.997-.148 0 0 .766.074 1.875.526m-7.968 7.44h10.01V0h-10.01v9.212z" transform="translate(2 44) translate(189.398 11.118)"/>
            </g>
            <g>
                <path fill="#3C425B" d="M50.16 7.666c.48-.29.599-.673.603-1.095.008-.947.007-1.895-.006-2.843-.006-.441-.122-.843-.72-1.07l2.67-.505.043.662c1.632-1.129 2.622-.741 3.16.129.517-.47 1.11-.783 1.818-.815.907-.04 1.514.463 1.564 1.367.05.928.016 1.861.036 2.792.012.505.004 1.03.662 1.388h-3.148c.665-.511.519-1.223.529-1.895.008-.525.002-1.05.002-1.574-.002-1.041-.407-1.356-1.463-1.112.425 1.485-.34 3.126.523 4.578H53.5c.556-.386.586-.915.579-1.464-.01-.745-.005-1.49-.001-2.235 0-.206-.015-.408-.122-.589-.24-.409-.634-.426-1.031-.348-.364.072-.182.386-.185.583-.019.964-.005 1.93-.004 2.894 0 .442.084.846.617 1.152h-3.192zM26.657 5.07v1.468c0 .57.386.775.91.479.278-.157.43-.41.532-.693.284-.79.291-1.595.102-2.405-.065-.276-.186-.525-.401-.72-.259-.235-.563-.28-.894-.167-.331.113-.244.388-.247.621-.006.472-.002.945-.002 1.418m-2.715-2.463c.929-.154 1.75-.246 2.545-.461.154-.042.17.045.17.153v.57c.277-.184.499-.356.742-.49.981-.542 2.069-.222 2.583.749 1.167 2.204-.23 4.474-2.782 4.475-.488 0-.58.14-.558.563.042.803.058.882.71 1.362h-3.211c.627-.472.52-1.139.522-1.775.006-1.275.004-2.55 0-3.824 0-.515-.027-1.024-.72-1.322M3.766.704C4.582.556 5.336.424 6.088.28c.293-.055.41.022.403.322-.018.759-.006 1.52-.006 2.27.17.1.236-.036.323-.098.31-.224.656-.375 1.035-.462 1.14-.262 1.965.295 2.016 1.398.043.924.049 1.85.053 2.775.003.45.08.856.58 1.187H7.305c.648-.413.56-1.006.563-1.574.002-.728.001-1.455-.004-2.183-.004-.412-.188-.7-.647-.774-.615-.1-.732-.005-.732.587 0 .892-.001 1.785.001 2.678.002.476.086.923.618 1.27H3.902c.706-.562.547-1.323.554-2.042.011-1.174.003-2.348.002-3.521 0-.556-.049-1.095-.692-1.41M36.2 7.303c.243-.17.295-.211.299-.518.012-1.083.01-2.166.001-3.25-.003-.401-.235-.682-.721-.904.938-.149 1.737-.256 2.514-.465.19-.051.2.052.202.182v.513c.445-.283.822-.565 1.298-.675 1.117-.258 1.92.216 2.021 1.329.09.974.043 1.96.053 2.941.005.455.06.888.637 1.205h-3.215c.566-.355.59-.878.596-1.4.009-.729.008-1.457 0-2.185-.002-.184-.018-.375-.071-.55-.124-.417-.524-.586-1.05-.51-.478.07-.25.423-.257.638-.026.88-.017 1.76-.004 2.64.01.758.053.846.534 1.382H36.04c-.08-.175.302-.177.17-.384l-.011.011z" transform="translate(2 44) translate(243.35 10.8)"/>
                <path fill="#3C425B" d="M33.332 5.788c0-.229.005-.458 0-.688-.011-.385-.197-.483-.535-.286-.504.296-.59 1.473-.14 1.851.174.146.377.16.567.1.187-.06.095-.252.105-.387.014-.196.003-.393.003-.59m2.716 1.372c-.509.185-.962.5-1.543.516-.557.014-.946-.153-1.13-.714-.442.418-.897.745-1.546.71-.66-.034-1.135-.282-1.335-.773-.214-.527-.063-1.141.39-1.572.476-.454 1.097-.592 1.706-.773.277-.082.756.126.75-.47-.006-.903-.183-1.269-.806-1.442-.29-.08-.582-.133-.885-.075 0 .191.184.16.284.225.371.24.48.582.37.985-.101.377-.394.575-.773.6-.402.027-.716-.152-.872-.534-.156-.38-.054-.704.247-.977.998-.907 2.168-.864 3.357-.528.697.197 1.038.738 1.052 1.505.015.77.018 1.542.005 2.312-.007.44.086.78.6.867.047.008.079.097.118.149l.01-.011M22.125 5.766c0-.214.007-.428-.002-.641-.006-.138.067-.318-.122-.391-.187-.072-.369-.023-.53.093-.491.351-.555 1.444-.108 1.834.182.16.394.194.619.12.232-.075.127-.275.14-.424.015-.196.003-.394.003-.591m-1.98-3.24c1.045-.494 2.121-.566 3.175-.07.582.274.755.823.763 1.417.01.759.028 1.517.013 2.275-.01.465.105.818.653.912-.91.853-2.11.805-2.642-.104-.438.411-.909.749-1.565.719-.59-.028-1.1-.204-1.329-.76-.234-.57-.098-1.109.347-1.55.569-.563 1.332-.728 2.093-.844.36-.055.493-.153.481-.52-.033-1.08-.447-1.484-1.578-1.474h-.41M62.697 3.637c-.012-.207-.005-.408-.04-.6-.049-.26-.122-.538-.446-.558-.309-.019-.451.203-.529.474-.114.398-.142.807-.143 1.218 0 .093-.023.227.117.218.319-.022.663 0 .945-.123.216-.094.046-.42.096-.629m1.535 2.545c-.307.865-1.124 1.451-2.015 1.491-1.014.046-1.85-.43-2.216-1.327-.42-1.033-.377-2.063.196-3.03.605-1.02 1.79-1.44 2.89-1.06.85.295 1.384 1.378 1.153 2.3-.06.238-.219.149-.339.15-.673.01-1.346.014-2.02 0-.256-.004-.362.027-.313.349.196 1.28.922 1.755 2.122 1.346.164-.056.322-.13.542-.219M12.066 3.673c-.01.729-.103.808.613.659.094-.02.193-.022.29-.022.187 0 .25-.097.255-.278.01-.396-.006-.79-.1-1.175-.05-.206-.188-.353-.404-.376-.217-.022-.368.097-.464.29-.157.317-.192.658-.19.902m2.667 2.647C14.12 7.423 13.12 7.88 11.956 7.59c-1.036-.257-1.702-1.179-1.732-2.395-.039-1.549.727-2.697 2.003-3.002 1.523-.364 2.646.605 2.565 2.193-.014.27-.111.332-.35.328-.665-.01-1.331.016-1.995-.011-.351-.014-.405.13-.37.436.13 1.105.884 1.612 1.987 1.313.203-.055.398-.14.596-.212l.073.079" transform="translate(2 44) translate(243.35 10.8)"/>
                <g transform="translate(2 44) translate(243.35 10.8) translate(64.832 2.118)">
                    <mask id="prefix__b" fill="#fff">
                        <use xlink:href="#prefix__a"/>
                    </mask>
                    <path fill="#3C425B" d="M3.73 1.748c-.346-.377-.612-.687-.9-.975-.24-.24-.528-.397-.891-.344-.28.041-.518.15-.594.443-.07.273.055.49.282.63.251.155.524.277.787.414.337.174.697.316 1.006.53.993.689.975 1.956-.032 2.633-.984.662-2.05.505-3.12.27-.153-.032-.17-.144-.172-.259-.004-.484-.002-.968-.002-1.512.281.398.53.777.858 1.088.264.251.54.494.941.489.358-.005.65-.123.777-.49.13-.377-.033-.662-.344-.833-.49-.269-1.027-.458-1.51-.737C-.126 2.552-.242 1.444.536.682.914.31 1.381.109 1.905.05 2.44-.01 2.96.102 3.48.22c.215.048.255.16.25.345-.008.359-.002.718-.002 1.183" mask="url(#prefix__b)"/>
                </g>
                <path fill="#3C425B" d="M15.991 2.585c.856-.144 1.617-.244 2.355-.453.203-.057.207.061.207.207-.005 1.45.037 2.903-.027 4.35-.053 1.194-1.327 2.6-2.443 2.837-.058.012-.124-.011-.211-.02.573-.623.78-1.363.78-2.178-.002-1.154-.009-2.308 0-3.462.004-.515-.068-.98-.66-1.281" transform="translate(2 44) translate(243.35 10.8)"/>
                <g transform="translate(2 44) translate(243.35 10.8) translate(0 .53)">
                    <mask id="prefix__d" fill="#fff">
                        <use xlink:href="#prefix__c"/>
                    </mask>
                    <path fill="#3C425B" d="M3.89 6.236c-.636.815-1.589 1.075-2.454.717-.667-.276-.817-.851-.834-1.475C.578 4.59.595 3.703.594 2.816c0-.548 0-.548-.594-.651C.984 1.677 1.72.96 2.52.088c0 .49.011.832-.004 1.173-.01.254.07.375.341.356.218-.016.437.007.655-.006.239-.013.33.081.324.321-.005.213-.082.287-.296.3-.327.021-.778-.166-.949.11-.16.258-.065.679-.07 1.028-.006.52-.001 1.038-.001 1.557 0 1.191.162 1.353 1.369 1.31" mask="url(#prefix__d)"/>
                </g>
                <path fill="#3C425B" d="M49.23 1.182c-.005.518-.427.937-.94.936-.503-.002-.944-.444-.944-.946 0-.514.415-.91.953-.907.55.002.935.382.93.917" transform="translate(2 44) translate(243.35 10.8)"/>
                <g transform="translate(2 44) translate(243.35 10.8) translate(16.679)">
                    <mask id="prefix__f" fill="#fff">
                        <use xlink:href="#prefix__e"/>
                    </mask>
                    <path fill="#3C425B" d="M1.148.101c.58-.001.989.373 1.001.92.013.55-.44 1.017-.988 1.02C.627 2.043.135 1.556.144 1.034.152.51.59.103 1.148.101" mask="url(#prefix__f)"/>
                </g>
                <path fill="#3C425B" d="M21.252 3.307c.009.51-.419.93-.943.928-.502-.002-.923-.398-.94-.882-.016-.484.444-.973.914-.97.507.002.96.434.969.924M45.722 5.843c-.003-.63-.009-1.26.002-1.889.006-.345-.029-.69.034-.98.051-.24.688-.077 1.03-.107.017-.002.034 0 .051-.001.057-.007.109-.011.158-.015v-.56l-.002-.005c-.011-.033-1.263.026-1.286-.55-.012-.29-.056-.608-.072-.942-.745.808-1.517 1.51-2.595 2.026.69.073.69.073.69.614 0 .895-.007 1.79.004 2.684.01.836.383 1.333 1.088 1.492.946.214 1.845-.099 2.253-.797-.076.003-.141.003-.206.01-.862.086-1.145-.154-1.15-.98M49.44 6.232c-.002-1.261-.006-2.523.004-3.784.002-.285-.032-.39-.338-.297-.441.135-1.752.444-1.936.403v.262c.28.047.378.25.403.744.04.799.034 1.601.037 2.402.002.619.047 1.256-.533 1.714h2.96c-.617-.38-.596-.917-.597-1.444" transform="translate(2 44) translate(243.35 10.8)"/>
            </g>
        </g>

        <path fill="#3C425B" d="M0 28.943L44.367 28.943 46.21 28 54.121 28 55.494 28.938 315 28.943 315 29.876 275.842 29.876 270.258 32 251.333 32 245.39 29.876 0 29.876z"/>
    </g>
</svg>
