<?xml version="1.0" encoding="UTF-8"?>
<svg width="325px" height="637px" viewBox="0 0 325 637" version="1.1" xmlns="http://www.w3.org/2000/svg" xmlns:xlink="http://www.w3.org/1999/xlink">
    <title>PLAYER BG</title>
    <g id="Page-1" stroke="none" stroke-width="1" fill="none" fill-rule="evenodd">
        <g id="TRT-MOBILE-VER2-ABOUT" transform="translate(-20.000000, -93.000000)" fill="#222946">
            <g id="PLAYER" transform="translate(20.000000, 92.551719)">
                <path d="M319,0.44828125 C322.313708,0.44828125 325,3.13457275 325,6.44828125 L325,631.448281 C325,634.76199 322.313708,637.448281 319,637.448281 L15,637.448281 C14.65796,637.448281 14.3226047,637.419661 13.9961983,637.364684 L14,637.448281 L6,637.448281 C2.6862915,637.448281 7.7637232e-15,634.76199 0,631.448281 L0,631.448281 L0,584.981077 C1.32239507e-14,584.174921 0.162455247,583.377033 0.477664865,582.635056 L0.477664865,582.635056 L9,562.572281 L9,6.44828125 C9,3.13457275 11.6862915,0.44828125 15,0.44828125 L319,0.44828125 Z" id="PLAYER-BG"></path>
            </g>
        </g>
    </g>
</svg>