<svg viewBox="0 0 48.52 37.72" xmlns="http://www.w3.org/2000/svg" xmlns:xlink="http://www.w3.org/1999/xlink"><clipPath id="a" transform="translate(10.64 11.07)"><path clip-rule="evenodd" d="m25 0a2.08 2.08 0 0 0 -1.18.36l-8.1 5.37a2.53 2.53 0 0 0 -.72 3.33 2.37 2.37 0 0 0 .74.8l8.1 5.37a2.17 2.17 0 0 0 3.1-.8 2.48 2.48 0 0 0 .33-1.22v-10.83a2.34 2.34 0 0 0 -2.27-2.38zm-14.65 0a2.08 2.08 0 0 0 -1.18.36l-8.1 5.37a2.52 2.52 0 0 0 -.73 3.33 2.25 2.25 0 0 0 .73.8l8.1 5.37a2.17 2.17 0 0 0 3.1-.8 2.53 2.53 0 0 0 .33-1.27v-10.73a2.34 2.34 0 0 0 -2.25-2.43z"/></clipPath><clipPath id="b" transform="translate(10.64 11.07)"><path d="m-1125.25-1626.38h1400v2990h-1400z"/></clipPath><clipPath id="c" transform="translate(10.64 11.07)"><path d="m-6.25-6.38h40v29h-40z"/></clipPath><clipPath id="d" transform="translate(10.64 11.07)"><path d="m-5.64-6.07h38.52v27.72h-38.52z"/></clipPath><clipPath id="e" transform="translate(10.64 11.07)"><path d="m-.25-.38h28v16h-28z"/></clipPath><g clip-path="url(#a)"><g clip-path="url(#b)"><g clip-path="url(#c)"><g clip-path="url(#d)"><g clip-path="url(#e)"><path d="m0 0h48.52v37.72h-48.52z" fill="#fff"/></g></g></g></g></g></svg>